<svg viewBox="0 0 297 297" xmlns="http://www.w3.org/2000/svg" role="img" aria-label="Vuvuzela"><g><path d="M107.424,50.504c2.218,0,4.385-0.901,5.949-2.465c1.564-1.574,2.465-3.741,2.465-5.949c0-2.218-0.901-4.385-2.465-5.949 c-1.564-1.574-3.732-2.465-5.949-2.465s-4.385,0.891-5.949,2.465c-1.564,1.564-2.465,3.732-2.465,5.949 c0,2.208,0.901,4.376,2.465,5.949C103.039,49.603,105.206,50.504,107.424,50.504z" fill="currentColor"/><path d="M25.753,99.507c2.218,0,4.385-0.901,5.949-2.465c1.564-1.574,2.465-3.741,2.465-5.949c0-2.218-0.901-4.385-2.465-5.949 c-1.564-1.574-3.732-2.465-5.949-2.465s-4.385,0.891-5.949,2.465c-1.564,1.564-2.465,3.732-2.465,5.949 c0,2.218,0.901,4.385,2.465,5.949C21.367,98.606,23.535,99.507,25.753,99.507z" fill="currentColor"/><path d="M74.755,148.51c2.218,0,4.385-0.901,5.949-2.465c1.564-1.564,2.465-3.732,2.465-5.949s-0.901-4.385-2.465-5.949 c-1.564-1.574-3.732-2.465-5.949-2.465s-4.385,0.891-5.949,2.465c-1.564,1.564-2.465,3.732-2.465,5.949 c0,2.208,0.901,4.376,2.465,5.949C70.37,147.609,72.538,148.51,74.755,148.51z" fill="currentColor"/><path d="M254.432,229.686c-2.218,0-4.385,0.891-5.949,2.465c-1.564,1.564-2.465,3.732-2.465,5.949c0,2.208,0.901,4.376,2.465,5.949 c1.564,1.564,3.732,2.465,5.949,2.465c2.218,0,4.385-0.901,5.949-2.465c1.564-1.574,2.465-3.741,2.465-5.949 c0-2.218-0.901-4.385-2.465-5.949C258.817,230.577,256.65,229.686,254.432,229.686z" fill="currentColor"/><path d="M189.095,197.018c-2.218,0-4.385,0.901-5.949,2.465c-1.564,1.564-2.465,3.732-2.465,5.949s0.901,4.385,2.465,5.949 c1.564,1.564,3.732,2.465,5.949,2.465s4.385-0.901,5.949-2.465c1.564-1.574,2.465-3.741,2.465-5.949 c0-2.218-0.901-4.385-2.465-5.949S191.313,197.018,189.095,197.018z" fill="currentColor"/><path d="M156.427,262.355c-2.218,0-4.385,0.891-5.949,2.465c-1.564,1.564-2.465,3.732-2.465,5.949c0,2.218,0.901,4.385,2.465,5.949 s3.732,2.465,5.949,2.465s4.385-0.901,5.949-2.465c1.564-1.564,2.465-3.732,2.465-5.949c0-2.218-0.901-4.385-2.465-5.949 C160.812,263.246,158.644,262.355,156.427,262.355z" fill="currentColor"/><path d="M157.069,81.669C130.186,124.46,81.632,191.605,2.981,268.471c-1.892,1.848-2.965,4.377-2.98,7.022 c-0.015,2.645,1.029,5.187,2.899,7.057l11.55,11.55c1.857,1.857,4.376,2.899,7,2.899c0.018,0,0.038,0,0.057,0 c2.645-0.015,5.174-1.089,7.022-2.98c76.867-78.651,144.011-127.205,186.803-154.089c1.72-1.08,3.406-2.126,5.076-3.156 l-58.304-63.239C160.49,76.181,158.813,78.893,157.069,81.669z" fill="currentColor"/><path d="M296.974,90.028c-0.165-2.269-1.109-4.493-2.832-6.236c-0.004-0.004-0.008-0.009-0.013-0.013 c-0.001-0.001-0.002-0.002-0.003-0.004c-0.003-0.003-0.007-0.006-0.01-0.009c-0.001-0.002-0.003-0.003-0.004-0.005 c-0.004-0.004-0.009-0.008-0.013-0.013L213.25,2.899c-0.004-0.004-0.008-0.007-0.012-0.011c-0.003-0.004-0.007-0.007-0.01-0.011 h-0.001c-3.868-3.845-10.118-3.837-13.978,0.021c-1.087,1.087-1.868,2.364-2.343,3.723c-0.681,1.794-8.031,20.741-25.853,51.794 l64.093,69.518c33.113-19.28,53.401-27.146,55.227-27.839c1.279-0.447,2.484-1.163,3.527-2.15c0.002-0.002,0.003-0.003,0.005-0.005 l0.001-0.001c0.116-0.109,0.229-0.222,0.339-0.336c1.659-1.729,2.568-3.911,2.728-6.136v-0.002 c0.001-0.002,0.001-0.004,0.001-0.004C297.009,90.98,297.009,90.502,296.974,90.028z" fill="currentColor"/></g></svg>