<?xml version="1.0" encoding="utf-8"?>
<!DOCTYPE svg PUBLIC "-//W3C//DTD SVG 1.0//EN" "http://www.w3.org/TR/2001/REC-SVG-20010904/DTD/svg10.dtd">
<svg version="1.0" xmlns="http://www.w3.org/2000/svg" width="256px" height="256px" viewBox="0 0 256 256" preserveAspectRatio="xMidYMid meet">
 <g fill="#141924">
  <path d="M36.8 254.8 c-4.9 -1.3 -5.1 -3.8 -0.3 -3.8 1.9 0 3.5 0.5 3.5 1 0 0.6 0.9 1 2 1 1.1 0 2 0.7 2 1.5 0 1.7 -1.8 1.8 -7.2 0.3z"/>
  <path d="M212 254.5 c0 -0.8 0.9 -1.5 2 -1.5 1.1 0 2 -0.4 2 -1 0 -0.5 1.4 -1 3 -1 1.7 0 3 -0.4 3 -1 0 -0.5 1.4 -1 3 -1 2 0 3 -0.5 3 -1.5 0 -1 1.1 -1.5 3.5 -1.5 3.1 0 3.5 -0.3 3.5 -2.5 0 -2.2 0.4 -2.5 3.6 -2.5 3.1 0 3.5 0.2 2.4 1.5 -2.7 3.3 -13.6 9.6 -19.7 11.5 -7.8 2.4 -9.3 2.5 -9.3 0.5z"/>
  <path d="M20.3 246.6 c-6.8 -5.1 -11.3 -10.4 -15.5 -18.4 l-3 -5.7 2.3 -0.3 c2.7 -0.4 3.9 1.3 3.9 5.6 0 2.5 0.4 3.2 2 3.2 1.5 0 2 0.7 2 2.5 0 1.8 0.5 2.5 2 2.5 1.3 0 2 0.7 2 2 0 1.3 0.7 2 2 2 1.3 0 2 0.7 2 2 0 1.5 0.7 2 2.5 2 1.4 0 2.5 0.5 2.5 1 0 0.6 0.7 1 1.5 1 0.9 0 1.5 0.9 1.5 2.5 0 1.4 -0.4 2.5 -0.9 2.5 -0.5 0 -3.5 -2 -6.8 -4.4z"/>
  <path d="M174 242.9 c-2.5 -0.5 -10.7 -0.9 -18.2 -0.8 l-13.8 0 0 -3.6 c0 -3.2 0.2 -3.5 3 -3.5 2.6 0 3 -0.4 3 -2.7 0 -1.6 -0.9 -3.9 -2 -5.3 -1.1 -1.4 -2 -3.3 -2 -4.2 0 -1.5 -0.9 -1.8 -4.5 -1.8 l-4.5 0 0 -5 0 -5 3.9 0 4 0 -0.5 -3.7 c-0.7 -4.8 -2.4 -9.3 -3.5 -9.3 -0.5 0 -0.9 -2.2 -0.9 -5 l0 -5 3.8 0 c2.8 0 4.6 -0.8 7 -3 4.1 -3.7 8.3 -3.9 14.7 -0.8 l4.6 2.2 6.2 -3.3 c8.7 -4.7 8.5 -4.5 9.3 -11.9 0.8 -8 2.7 -10.2 8.8 -10.2 2.3 0 6.5 -0.3 9.4 -0.6 3 -0.4 5.2 -0.3 5.2 0.3 0 0.5 2.2 3.2 5 6.1 2.7 2.8 5.2 6.2 5.5 7.5 0.3 1.2 1.6 2.7 2.7 3.2 1.2 0.6 3.1 2.3 4.2 3.8 1.9 2.6 2.1 4.2 2.1 17.5 0 14.7 0 14.8 -3.3 21.5 -1.9 3.8 -4 7.1 -4.8 7.4 -0.8 0.3 -1.4 1.2 -1.4 2 0 0.8 -1.6 2.1 -3.5 2.9 -1.9 0.8 -3.5 2.1 -3.5 2.9 0 0.8 -0.5 1.5 -1.1 1.5 -0.6 0 -1.7 0.7 -2.5 1.5 -3.8 3.8 -22.9 6.4 -32.4 4.4z m13.4 -13.8 l3.8 -3.9 -2 -4.6 c-2.1 -4.7 -2.5 -4.9 -10.5 -6 -3.4 -0.4 -4.2 -0.1 -7.3 3.2 -1.8 2 -3.4 4.1 -3.4 4.8 0 2.2 5.9 9.3 8.2 9.7 5.9 1.1 7.4 0.7 11.2 -3.2z m18.1 -7.9 c2.4 -0.7 4.5 -2.6 4.5 -4.1 0 -0.6 1.5 -1.1 3.3 -1.1 2.2 0 2.8 -0.3 1.8 -0.9 -0.9 -0.6 -1.2 -2.1 -0.9 -4.7 0.6 -4.7 -2.8 -12.8 -5 -11.9 -0.7 0.3 -2.9 0.5 -4.8 0.5 -2.6 0 -3.4 0.4 -3.4 1.8 0 0.9 -1.3 4.1 -2.9 7 l-3 5.3 1.9 4.2 c2.3 5.3 3 5.9 4.9 5.1 0.9 -0.3 2.5 -0.9 3.6 -1.2z m-43 -7 c4.7 -4 5.5 -6.5 4.3 -13.5 -1 -6.4 -1.1 -6.6 -5.2 -8.1 -5.5 -2.1 -6.1 -2.1 -9.2 1.1 -5.4 5.4 -3.7 15.2 3.5 20 4 2.7 4 2.7 6.6 0.5z m28 -11.2 c1.4 -2.7 2.5 -5.3 2.5 -5.8 0 -0.5 -1.9 -3 -4.1 -5.6 l-4.1 -4.7 -4.7 2.7 c-7.3 4.2 -7.2 4.1 -5.4 11.1 1.4 5.8 1.7 6.2 4.7 6.6 8.3 1 8.4 1 11.1 -4.3z m17 -11.9 c2.5 -0.5 3.1 -1.3 4 -5.1 1.2 -4.9 1.3 -4.6 -5.8 -12.6 -4.4 -4.9 -6.5 -5.8 -11.2 -5 -3 0.6 -3.3 1 -3.9 5.7 l-0.7 5 5.8 6.4 c5.9 6.5 6.4 6.8 11.8 5.6z"/>
  <path d="M244 234.6 c0 -2.5 0.4 -3.6 1.5 -3.6 0.8 0 1.5 -0.9 1.5 -2 0 -2.4 2.1 -7 3.2 -7 0.4 0 0.8 -1.3 0.8 -3 0 -1.6 0.5 -3 1 -3 0.6 0 1 -0.9 1 -2 0 -1.1 0.7 -2 1.5 -2 1.9 0 1.9 1.3 -0.1 8.1 -1.7 5.8 -6.5 14.9 -8.9 16.9 -1.3 1.1 -1.5 0.7 -1.5 -2.4z"/>
  <path d="M0.6 216.8 c-1 -3.8 -0.7 -4.8 1.4 -4.8 1.6 0 2 0.7 2 3.5 0 4 -2.4 4.9 -3.4 1.3z"/>
  <path d="M151 170.8 c0.1 -2.7 0.9 -3.9 4.4 -6.6 6 -4.5 14 -8.2 17.6 -8.2 2.8 0 3 0.3 3 3.4 0 3.2 -0.4 3.6 -5.3 5.9 -2.9 1.3 -6.9 3.8 -8.9 5.6 -2.6 2.2 -4.5 3.1 -7.2 3.1 -3.4 0 -3.6 -0.2 -3.6 -3.2z"/>
  <path d="M0.4 40.9 c0.8 -5.3 3.2 -10.9 4.5 -10.9 0.6 0 1.1 1.6 1.1 3.5 0 1.9 -0.4 3.5 -1 3.5 -0.5 0 -1 1.8 -1 4 0 3.4 -0.3 4 -2.1 4 -2 0 -2.1 -0.4 -1.5 -4.1z"/>
  <path d="M253 42.6 c0 -0.8 -0.5 -1.6 -1 -1.8 -0.6 -0.2 -1.3 -2.7 -1.7 -5.6 -1.1 -9.3 3.3 -5 5.1 5.1 0.6 3 0.4 3.7 -0.9 3.7 -0.8 0 -1.5 -0.6 -1.5 -1.4z"/>
  <path d="M239 15.4 c0 -3.9 0.9 -3.8 4 0.6 l2.1 3 -3 0 c-2.9 0 -3.1 -0.3 -3.1 -3.6z"/>
  <path d="M23 8.1 c0 -1.2 9 -5.5 14.5 -7 5.7 -1.6 7.5 -1.4 7.5 0.7 0 1.4 -1.4 2.1 -6.2 3.2 -3.5 0.7 -6.9 2 -7.6 2.7 -1.5 1.5 -8.2 1.8 -8.2 0.4z"/>
  <path d="M224 5.5 c0 -2.4 0.1 -2.5 3.2 -1.2 4.6 1.9 4.8 3.7 0.4 3.7 -3.2 0 -3.6 -0.3 -3.6 -2.5z"/>
  <path d="M213.3 4.3 c-2.6 -0.5 -3.2 -4.3 -0.7 -4.3 3.7 0 10.4 2.3 10.4 3.6 0 1.4 -4.5 1.7 -9.7 0.7z"/>
 </g>
 <g fill="#191a20">
  <path d="M186.3 241.7 c0.5 -1.4 -0.1 -1.7 -3.6 -1.7 -2.3 -0.1 -6.1 -0.5 -8.5 -0.9 -3.4 -0.7 -4.6 -0.5 -6.4 1 -1.9 1.7 -4.1 1.9 -26 1.9 l-23.8 0 0 -3.5 0 -3.5 10 0 10 0 0 -3 c0 -2.9 0.1 -3 5 -3 4.3 0 5 -0.3 5 -2 0 -1.1 0.4 -2 1 -2 1.5 0 3.1 3.7 2.4 5.7 -0.5 1.7 -0.4 1.7 1 -0.1 1.5 -1.9 1.6 -1.9 4.2 0.7 1.5 1.5 3.3 2.7 4 2.7 0.8 0 1.4 0.7 1.4 1.5 0 1.3 1.2 1.7 3.8 1.4 0.4 -0.1 0.6 -0.5 0.4 -1 -0.1 -0.5 1 -0.9 2.4 -0.9 2.1 0 2.4 -0.3 1.5 -1.4 -0.9 -1.1 0.6 -1.3 9.4 -1.3 10.1 0 10.5 0.1 8.9 1.9 -1 1 -2.7 1.9 -3.8 1.9 -2 0.1 -2 0.2 -0.1 0.6 1.1 0.3 2.5 1 3 1.6 1.2 1.4 5.9 2.1 5.1 0.8 -0.7 -1.1 3.7 -2.3 5.7 -1.5 0.8 0.3 1.7 -0.2 2.1 -1.1 0.4 -1 1.2 -1.5 2.2 -1.1 0.8 0.3 1.2 0.2 0.9 -0.4 -0.6 -0.9 0.8 -1.4 2.7 -1.1 0.5 0 0.7 -0.4 0.5 -1.1 -0.1 -0.6 0.7 -1.6 1.8 -2.2 1.2 -0.7 2.1 -2.3 2.2 -4 0.2 -2.6 0 -2.8 -2.5 -2.1 -5.8 1.5 -10.3 1.7 -11.6 0.6 -1.1 -1 -1.5 -0.8 -2 0.6 -0.3 1.1 -0.4 0.8 -0.3 -0.7 0.2 -2.3 0.6 -2.5 6 -2.8 7 -0.4 9 -2 12.7 -10.2 3.4 -7.4 4.6 -8.7 5.4 -5.4 0.6 2.3 0.8 2.4 2.3 0.9 0.8 -0.9 2.2 -1.4 3 -1.1 0.8 0.3 1.7 0.6 1.9 0.6 0.2 0 0.4 1.6 0.4 3.6 0 3.1 -0.3 3.5 -2.2 3.2 -1.8 -0.2 -2.7 0.5 -4.1 3.2 -2.9 5.9 -5.1 9.4 -6.7 10.8 -0.8 0.7 -0.9 1.1 -0.2 0.7 1 -0.5 1.1 0 0.6 2.2 -0.4 1.5 -1.1 3.4 -1.7 4.1 -3.7 4.7 -27 11 -25.4 6.9z"/>
  <path d="M91 238.5 c0 -3.3 0.2 -3.5 3.5 -3.5 3.3 0 3.5 0.2 3.5 3.5 0 3.3 -0.2 3.5 -3.5 3.5 -3.3 0 -3.5 -0.2 -3.5 -3.5z"/>
  <path d="M100 238.5 l0 -3.5 7.5 0 7.5 0 0 3.5 0 3.5 -7.5 0 -7.5 0 0 -3.5z"/>
  <path d="M134 219.5 c0 -1.2 -1.5 -1.5 -7.5 -1.5 l-7.5 0 0 -3.5 0 -3.5 13.8 0 c12.2 0 13.8 0.2 14.9 1.8 0.9 1.5 0.8 2.6 -0.4 5 -1.5 3.1 -1.8 3.2 -7.4 3.2 -4.6 0 -5.9 -0.3 -5.9 -1.5z"/>
  <path d="M164.7 218.3 c-0.4 -0.3 -0.7 -1.9 -0.7 -3.5 0 -2.4 0.4 -2.8 2.6 -2.8 2 0 2.5 0.4 2 1.6 -0.5 1.4 -0.4 1.5 0.9 0.4 1.3 -1.1 1.5 -0.8 1.5 1.9 0 2.7 -0.3 3.1 -2.8 3.1 -1.6 0 -3.2 -0.3 -3.5 -0.7z"/>
  <path d="M149.9 216.3 c-0.1 -0.1 -0.2 -0.7 -0.3 -1.2 0 -0.5 -0.4 -1.3 -0.8 -1.7 -1.5 -1.4 -0.8 -2.5 1.5 -2.2 2.7 0.4 3.9 5.5 1.3 5.5 -0.9 0 -1.7 -0.2 -1.7 -0.4z"/>
  <path d="M208 196.6 c0 -0.8 0.8 -1.7 1.8 -1.9 1.6 -0.4 1.6 -0.5 0 -0.6 -3.2 -0.2 -2.1 -3.1 1.2 -3.1 3.2 0 3.7 0.8 1.8 2.9 -0.8 0.8 -0.8 1.1 -0.2 0.8 0.7 -0.4 1.4 0.2 1.7 1.3 0.4 1.7 0 2 -2.9 2 -2.3 0 -3.4 -0.5 -3.4 -1.4z"/>
  <path d="M224 192.5 c0 -0.8 -0.4 -1.5 -1 -1.5 -0.5 0 -0.8 -1.3 -0.7 -3 0.1 -2.1 0.7 -3 2 -3 1.4 0 1.7 0.9 1.7 4.5 0 2.5 -0.4 4.5 -1 4.5 -0.5 0 -1 -0.7 -1 -1.5z"/>
  <path d="M142 180.5 c0 -1.9 0.4 -3.5 0.9 -3.5 0.5 0 1.1 -1 1.3 -2.2 0.2 -1.9 1 -2.4 4.1 -2.6 3.6 -0.3 3.7 -0.3 3.7 3.3 0 2.2 -0.6 3.8 -1.5 4.1 -0.8 0.4 -1.5 1.5 -1.5 2.5 0 1.5 -0.7 1.9 -3.5 1.9 -3.3 0 -3.5 -0.2 -3.5 -3.5z"/>
  <path d="M212 178.7 c0 -3.1 0.3 -3.3 3.5 -3.5 3.3 -0.2 3.5 -0.1 3.5 2.7 0 2.3 -0.4 2.9 -1.5 2.5 -0.8 -0.4 -1.5 -0.1 -1.5 0.5 0 0.6 -0.9 1.1 -2 1.1 -1.6 0 -2 -0.7 -2 -3.3z"/>
  <path d="M198.3 163.6 c-2.4 -0.6 -4.3 -1.3 -4.3 -1.8 0 -0.4 -1.6 -0.8 -3.5 -0.8 -3.3 0 -3.5 -0.2 -3.5 -3.5 0 -3.3 0.2 -3.5 3.5 -3.5 1.9 0 3.5 0.5 3.5 1 0 0.6 1.6 1 3.5 1 1.9 0 3.5 0.5 3.5 1 0 0.6 1.1 1 2.5 1 2.2 0 2.5 0.4 2.5 3.5 0 1.9 -0.4 3.5 -1 3.5 -0.5 0 -1 -0.6 -1 -1.2 0 -0.8 -0.3 -0.9 -0.8 -0.3 -0.4 0.7 -2.2 0.7 -4.9 0.1z"/>
  <path d="M171.6 160.5 c1.6 -1.3 1.6 -1.4 0.2 -0.9 -1.4 0.5 -1.8 0.1 -1.8 -2 0 -2.3 0.4 -2.6 3.5 -2.6 3.3 0 3.5 0.2 3.5 3.5 0 3.4 -0.1 3.5 -3.7 3.5 -3.5 0 -3.6 -0.1 -1.7 -1.5z"/>
 </g>
 <g fill="#222124">
  <path d="M91.3 241.3 c-2 -0.4 -2.3 -1 -2.3 -5.7 l0 -5.3 9.2 -0.7 c16 -1.1 47.8 -0.7 47.8 0.6 0 0.6 0.3 0.8 0.6 0.5 0.4 -0.4 -0.1 -1.8 -1 -3.1 -0.9 -1.4 -1.6 -3.2 -1.6 -4.1 0 -1.1 -1.1 -1.5 -4.5 -1.5 -3.3 0 -4.5 -0.4 -4.5 -1.5 0 -0.8 -0.4 -1.5 -1 -1.5 -0.5 0 -1 -1.6 -1 -3.5 0 -2.5 0.4 -3.5 1.6 -3.5 0.8 0 2.2 -0.7 3 -1.5 0.9 -0.8 3.1 -1.5 5 -1.5 3.1 0 3.4 0.3 3.4 3 0 1.7 0.5 3 1.1 3 0.6 0 0.8 1.3 0.5 3.2 -0.3 2.1 0.1 4 1.4 5.7 3.7 5.3 3 8.1 -2 8.1 -4.4 0 -4.5 0.2 -2.9 3.2 0.9 1.6 0.8 2.3 -0.2 2.9 -1 0.6 -0.6 0.9 1.4 0.9 3 0 3.6 1.4 1.1 2.4 -1.7 0.7 -51.6 0.6 -55.1 -0.1z m52.7 -23.7 c0 -2.6 -1.6 -3.6 -5.9 -3.5 -2.5 0.1 -3.8 0.3 -2.8 0.6 0.9 0.2 1.7 1.1 1.7 1.9 0 0.9 1.1 1.4 3.5 1.4 1.9 0 3.5 -0.2 3.5 -0.4z"/>
  <path d="M168 238.5 c0 -3.6 0.6 -4 4.7 -2.9 1.6 0.5 2.1 1.3 2.1 3.5 -0.1 2.6 -0.4 2.9 -3.5 2.9 -3.1 0 -3.3 -0.2 -3.3 -3.5z"/>
  <path d="M185.5 241 c1.7 -0.7 1.7 -0.9 0.3 -0.9 -1.8 -0.1 -2.6 -3.1 -0.9 -3.1 0.5 0 1.6 0.7 2.5 1.5 0.8 0.8 1.9 1.5 2.5 1.5 0.6 0 1.1 0.5 1.1 1 0 0.6 -1.7 1 -3.7 0.9 -3.1 0 -3.4 -0.2 -1.8 -0.9z"/>
  <path d="M211 227.2 c0 -3.8 1.1 -5.2 4.1 -5.2 2.6 0 2.9 0.3 2.9 3.5 0 3.1 -0.3 3.5 -2.6 3.5 -1.7 0 -2.3 -0.4 -1.8 -1.2 0.5 -0.9 0.2 -0.9 -0.9 0.1 -1.5 1.2 -1.7 1.1 -1.7 -0.7z"/>
  <path d="M100 220 c0 -2 -0.5 -3 -1.5 -3 -1 0 -1.5 -1.1 -1.5 -3.5 0 -3.5 0 -3.5 4.4 -3.5 l4.3 0 0.7 4.6 c1.1 8.1 1 8.4 -2.9 8.4 -3.2 0 -3.5 -0.2 -3.5 -3z"/>
  <path d="M217 216.3 c0 -4.2 4.3 -10.3 7.2 -10.3 1.4 0 1.8 0.8 1.8 3.5 0 1.9 -0.4 3.5 -1 3.5 -0.5 0 -1 1.3 -1 3 0 2.7 -0.3 2.9 -3.5 2.8 -3 -0.1 -3.5 -0.5 -3.5 -2.5z"/>
  <path d="M137 204.5 c0 -3.3 0.2 -3.5 3.5 -3.5 3.3 0 3.5 0.2 3.5 3.5 0 3.3 -0.2 3.5 -3.5 3.5 -3.3 0 -3.5 -0.2 -3.5 -3.5z"/>
  <path d="M137 194 c0 -3.9 0.1 -4 3.5 -4 3.5 0 3.6 0 3.3 4 -0.2 3.8 -0.3 4 -3.5 4 -3.2 0 -3.3 -0.1 -3.3 -4z"/>
 </g>
 <g fill="#1a212d">
  <path d="M35.9 254.2 c-13.9 -3.7 -26.5 -15.2 -32.7 -29.9 -2.7 -6.3 -2.8 -8.3 -0.3 -8.3 2 0 3.1 2.5 3.1 7.3 0 1.7 0.5 2.7 1.5 2.7 1 0 1.5 1 1.5 3 0 2.3 0.4 3 2 3 1.5 0 2 0.7 2 2.5 0 1.7 0.5 2.5 1.8 2.5 2.3 0 4.2 1.9 4.2 4.2 0 1.3 0.8 1.8 2.5 1.8 1.8 0 2.5 0.5 2.5 1.9 0 1.4 0.9 2 3.3 2.4 4 0.6 13.1 3.9 13.5 5 0.2 0.4 1.2 0.7 2.3 0.7 1 0 1.9 0.7 1.9 1.5 0 1.8 -0.8 1.8 -9.1 -0.3z"/>
  <path d="M211 254.5 c0 -0.9 0.9 -1.5 2.5 -1.5 2.8 0 3.4 1.5 0.9 2.4 -2.5 1 -3.4 0.7 -3.4 -0.9z"/>
  <path d="M219 252 c0 -1.4 0.7 -2 2.1 -2 1.1 0 2.7 -0.7 3.5 -1.5 0.9 -0.8 2.6 -1.5 4 -1.5 1.5 0 2.4 -0.6 2.4 -1.5 0 -0.9 0.9 -1.5 2.5 -1.5 1.8 0 2.5 -0.5 2.5 -2 0 -1.3 0.7 -2 2 -2 1.3 0 2 -0.7 2 -2 0 -2.3 1.8 -3.3 5.2 -2.8 5.5 0.8 -18 18.8 -24.6 18.8 -0.9 0 -1.6 -0.8 -1.6 -2z"/>
  <path d="M172.5 243 c-1.6 -0.4 -5.1 -0.8 -7.7 -0.9 -5.6 -0.1 -6.7 -2.5 -1.7 -3.6 1.7 -0.4 3.3 -1.3 3.6 -2.1 0.3 -0.8 1.4 -1.4 2.4 -1.4 1.7 0 1.6 -0.5 -1.1 -4.2 -1.6 -2.2 -3 -4.7 -3 -5.5 0 -0.8 -0.4 -1.2 -0.9 -0.8 -1.7 1 0.8 -5.8 2.9 -7.9 l2 -2 0 3.7 c0 2 -0.5 3.7 -1.1 3.7 -0.6 0 -0.3 0.7 0.5 1.6 0.9 0.8 1.6 2.2 1.6 3 0 0.8 0.5 1.4 1 1.4 0.6 0 1 1.7 1 3.9 0 3.7 0.2 3.9 3.8 4.5 2 0.3 5.1 0.6 6.8 0.6 1.7 0 3.7 0.7 4.5 1.6 1 1.2 2.3 1.4 5.6 0.9 3.8 -0.5 4.3 -0.4 4.3 1.3 0 1.5 -0.9 2.1 -4.6 2.6 -5.9 0.8 -16 0.6 -19.9 -0.4z m13.3 -2.7 c-1 -0.2 -2.6 -0.2 -3.5 0 -1 0.3 -0.2 0.5 1.7 0.5 1.9 0 2.7 -0.2 1.8 -0.5z"/>
  <path d="M89 241 c0 -0.5 -1.1 -1 -2.5 -1 -2.3 0 -2.5 -0.4 -2.5 -4.5 0 -4.4 0 -4.5 3.4 -4.5 3.1 0 3.4 0.3 4 3.5 0.4 1.9 1.1 3.6 1.6 3.6 0.6 0.1 2.8 0.3 5 0.4 2.2 0.1 4.7 0.3 5.5 0.4 0.8 0 1.5 0.8 1.5 1.6 0 1.2 -1.6 1.5 -8 1.5 -4.7 0 -8 -0.4 -8 -1z"/>
  <path d="M126 240.5 c0 -1.6 0.1 -1.6 9.5 -1.6 9.4 0 9.5 0 9.5 1.6 0 1.2 -1.7 1.5 -9.5 1.5 -7.8 0 -9.5 -0.3 -9.5 -1.5z"/>
  <path d="M202.1 237.3 c0 -0.5 1.9 -2.1 4.1 -3.8 2.3 -1.6 4.3 -3.9 4.4 -4.9 0.6 -4.3 1.5 -6.7 2.3 -6.2 0.5 0.3 1.1 -0.6 1.4 -2 0.4 -2.5 0.4 -2.5 -2.2 0.6 -2 2.4 -3.8 3.3 -7.7 3.9 -2.8 0.4 -6.1 0.4 -7.3 0 -1.5 -0.6 -2.1 -0.4 -2.1 0.6 0 0.8 -0.7 1.5 -1.5 1.5 -0.9 0 -1.5 -0.9 -1.5 -2.5 0 -1.6 -0.6 -2.5 -1.5 -2.5 -1 0 -1.5 -1 -1.5 -3 0 -2.5 -0.4 -3 -2.5 -3 -1.4 0 -2.5 -0.3 -2.5 -0.7 0 -0.5 -2.7 -0.9 -6.1 -0.9 -3.3 -0.1 -6.3 -0.5 -6.6 -0.8 -0.4 -0.3 -0.1 -1.6 0.5 -2.9 0.8 -1.5 0.9 -3.1 0.3 -5.2 -1 -2.9 -1 -2.9 -0.8 1 0.1 2.9 -0.2 4 -1.4 4.3 -1.3 0.2 -1.9 -1.3 -2.9 -7.8 -0.8 -5 -1.8 -8.4 -2.6 -8.7 -0.8 -0.3 -1.4 -2 -1.4 -3.9 0 -3.1 0.3 -3.4 2.9 -3.4 1.6 0 3.6 -0.7 4.4 -1.5 0.8 -0.8 3.3 -2 5.6 -2.7 2.3 -0.7 4.1 -1.9 4.1 -2.5 0 -0.7 0.7 -1.3 1.5 -1.3 1.1 0 1.5 -1.1 1.5 -4 0 -3.9 0.1 -3.9 3.5 -3.8 3.5 0.1 3.5 0.2 3.5 4.7 0 4.2 0.5 5.1 5.3 10.4 2.9 3.1 5.9 5.7 6.5 5.7 1.9 0 1.4 2.8 -0.5 3.3 -1.7 0.4 -1.7 0.5 0 0.6 2 0.1 2.2 2.4 0.4 4.3 -0.7 0.7 -2.9 4.3 -4.9 8.1 -2.5 4.6 -3.1 6.7 -2.2 6.7 0.8 0 1.4 1 1.4 2.5 0 1.5 0.6 2.5 1.4 2.5 0.8 0 1.6 0.5 1.8 1.2 0.4 1 1.3 1 4.5 0 2.2 -0.7 5 -1.2 6.2 -1.2 1.6 0 2.1 -0.6 2.1 -2.7 0 -4.1 1.1 -5.2 4.9 -5.1 3.1 0.1 3.3 0.3 2.9 3.5 -0.2 1.8 0 3.3 0.4 3.3 0.4 0 0.8 1.6 0.8 3.5 0 2.4 -0.5 3.5 -1.5 3.5 -0.8 0 -1.5 0.9 -1.5 2 0 1.1 -0.6 2 -1.3 2 -0.7 0 -1.7 1 -2.2 2.3 -0.6 1.2 -2 2.3 -3.2 2.5 -1.3 0.2 -2.3 1 -2.3 1.8 0 0.9 -1.1 1.4 -3.5 1.4 -1.9 0 -3.5 -0.3 -3.4 -0.7z m-10.5 -24.1 c-0.1 -2.4 -0.4 -2.7 -1.7 -1.9 -1.5 0.9 -1.5 1.1 0 2.8 0.9 0.9 1.6 1.8 1.7 1.8 0.1 0.1 0.1 -1.2 0 -2.7z m-5.8 -1.9 c-1 -0.2 -2.8 -0.2 -4 0 -1.3 0.2 -0.5 0.4 1.7 0.4 2.2 0.1 3.2 -0.1 2.3 -0.4z m9.8 -7.4 c1.4 -2.8 2.4 -5.3 2.2 -5.5 -0.2 -0.2 -1.6 2.1 -3.1 5.1 -1.5 3 -2.5 5.5 -2.2 5.5 0.3 0 1.6 -2.3 3.1 -5.1z m0.6 -11.6 c-5.5 -6.9 -10.9 -11.6 -11.7 -10.2 -0.5 0.7 -0.4 1 0.3 0.5 0.6 -0.3 3.8 2.5 7.3 6.4 6.9 7.6 8.8 9.2 4.1 3.3z"/>
  <path d="M184 233.5 c0 -2.2 0.4 -2.5 3.8 -2.5 l3.7 0.1 -2.8 2.4 c-3.6 3.2 -4.7 3.1 -4.7 0z"/>
  <path d="M99 225 l0 -8 -3.5 0 c-3.3 0 -3.5 -0.2 -3.5 -3.5 0 -3.4 0.1 -3.5 4 -3.5 3.9 0 4 0.1 4 3.5 0 3.2 0.2 3.5 3 3.5 l3 0 0 7.4 c0 7.7 -0.5 8.6 -5.1 8.6 -1.7 0 -1.9 -0.8 -1.9 -8z"/>
  <path d="M250 222.5 c0 -2.8 0.4 -3.5 2 -3.5 2.2 0 2.6 2 1 5.1 -1.6 3 -3 2.3 -3 -1.6z"/>
  <path d="M144 222 c0 -0.5 -0.7 -1 -1.5 -1 -0.8 0 -1.5 -0.4 -1.5 -1 0 -0.5 0.9 -1 2 -1 1.7 0 1.9 -0.3 1 -1.9 -1.7 -3.3 -1.2 -5.3 1.3 -4.9 1.8 0.2 2.2 1 2.3 3.8 0.1 4.9 -0.6 7 -2.2 7 -0.8 0 -1.4 -0.4 -1.4 -1z"/>
  <path d="M155.3 218.1 c-2.3 -1.1 -4.4 -1.7 -4.7 -1.5 -0.3 0.2 -0.4 0.1 -0.1 -0.3 0.3 -0.3 0 -1.2 -0.6 -2 -0.9 -1 -0.4 -1.3 2.5 -1.3 2 0 3.6 0.5 3.6 1 0 0.6 0.9 1 2 1 1.5 0 2 0.7 2 2.5 0 1.4 -0.1 2.5 -0.2 2.5 -0.2 0 -2.2 -0.9 -4.5 -1.9z"/>
  <path d="M162 217.5 c0 -2 0.5 -2.5 2.5 -2.5 2.6 0 2.6 0 0.8 2.5 -2.3 3.1 -3.3 3.1 -3.3 0z"/>
  <path d="M128 216.6 c0 -0.8 0.8 -1.7 1.8 -1.9 1.6 -0.4 1.6 -0.5 0 -0.6 -1 0 -1.8 -0.8 -1.8 -1.6 0 -1 1 -1.5 3.4 -1.5 3.2 0 3.4 0.2 3.4 3.5 0 3.3 -0.2 3.5 -3.4 3.5 -2.3 0 -3.4 -0.5 -3.4 -1.4z"/>
  <path d="M219.4 210.8 c-0.4 -0.6 0.4 -2.1 1.9 -3.4 1.5 -1.3 2.7 -2.8 2.7 -3.4 0 -0.5 0.7 -1 1.5 -1 1.1 0 1.5 1.2 1.5 4.5 0 3.8 -0.3 4.5 -1.9 4.5 -1.1 0 -2.2 -0.8 -2.4 -1.7 -0.4 -1.7 -0.5 -1.7 -0.6 0 -0.1 1.9 -1.6 2.3 -2.7 0.5z"/>
  <path d="M143 207.5 c0 -3.4 1.3 -4.7 2.3 -2.2 0.4 1 0.6 1 0.6 0 0.1 -0.7 1 -1.3 2.1 -1.3 1.6 0 2 0.7 2 3.5 0 3.3 -0.2 3.5 -3.5 3.5 -3.3 0 -3.5 -0.2 -3.5 -3.5z"/>
  <path d="M215.1 207.8 c0 -1.8 0.4 -4.2 0.8 -5.3 0.7 -1.7 1 -1.5 1.9 1.8 1.2 4.3 0.7 6.7 -1.4 6.7 -0.9 0 -1.4 -1.1 -1.3 -3.2z"/>
  <path d="M140.2 200.5 c-2.4 -5.3 -2.5 -12.7 -0.2 -18.8 1.2 -3.1 2.7 -6.3 3.3 -7 0.7 -0.6 1.8 -2.4 2.4 -3.9 1.1 -2.6 1.7 -2.8 6.5 -2.8 4.9 0.1 5.1 0.2 3.4 1.5 -1.1 0.8 -1.5 1.5 -1 1.5 0.6 0 2.1 -1.2 3.5 -2.7 1.3 -1.5 1.6 -2.1 0.7 -1.4 -1.6 1.2 -1.8 1 -1.8 -1.8 0 -2.1 0.5 -3.1 1.5 -3.1 0.8 0 1.5 -0.4 1.5 -1 0 -0.5 0.9 -1 2 -1 1.1 0 2 -0.4 2 -1 0 -0.5 1.1 -1 2.5 -1 1.8 0 2.5 -0.5 2.5 -2 0 -2.6 4.4 -3.3 16.8 -2.8 7.2 0.3 11.2 1.1 15.7 2.9 l6 2.4 0 5 c0 4.5 -0.2 5 -2.3 5.3 -1.3 0.2 -3.7 -0.2 -5.3 -0.9 -2.4 -0.9 -3.8 -0.9 -7 0.1 -3.3 1.1 -4.2 1.1 -4.9 0.1 -0.6 -1.1 -0.9 -1.1 -1.3 0 -0.4 1.1 -1.3 1 -4.3 -0.7 -4.8 -2.7 -11.4 -4.6 -11.4 -3.3 0 0.5 -0.9 0.9 -2 0.9 -1.1 0 -2 0.5 -2 1 0 0.6 -0.7 1 -1.5 1 -0.8 0 -1.5 0.5 -1.5 1 0 0.6 -1.1 1 -2.4 1 -2.1 0 -2.4 0.6 -3 5.3 -0.3 2.8 -0.6 6.6 -0.6 8.4 0 2.6 -0.3 3.1 -1.7 2.6 -1.5 -0.5 -1.5 -0.3 0.2 1 1.9 1.4 1.8 1.6 -1.8 4.8 -2 1.8 -3.7 3.7 -3.7 4.2 0 0.4 -0.7 1.5 -1.5 2.3 -0.8 0.9 -1.5 2.4 -1.5 3.5 0 1.5 -0.7 1.9 -3.3 1.9 -2.6 0 -3.6 -0.6 -4.5 -2.5z m1.8 -7.7 c0 -1.9 -0.2 -2 -1 -0.8 -1.3 1.9 -1.3 3 0 3 0.6 0 1 -1 1 -2.2z m59.5 -28.3 c0.6 -0.2 -1.5 -0.4 -4.5 -0.4 -3 0 -6.1 0.3 -6.8 0.8 -1.2 0.7 9 0.4 11.3 -0.4z"/>
  <path d="M210 196.6 c0 -2.2 3.7 -2.7 4.3 -0.5 0.4 1.5 0 1.9 -1.9 1.9 -1.4 0 -2.4 -0.6 -2.4 -1.4z"/>
  <path d="M210 191.6 c0 -1.5 0.6 -2.6 1.3 -2.6 1.1 0 1.2 -1.2 0.6 -5.7 -0.4 -3.1 -1.3 -5.9 -1.9 -6.3 -0.6 -0.4 -1 -2 -0.8 -3.6 0.2 -2.5 0.8 -2.9 3.6 -3.2 2.4 -0.2 3.2 0.1 3.2 1.2 0 0.9 0.5 1.6 1 1.6 0.6 0 1 1.3 1 2.9 0 2.6 0.4 3 3.3 3.3 2.9 0.3 3.2 0.6 3.5 4.1 0.2 2 0.7 3.7 1.3 3.7 0.5 0 0.9 1.6 0.9 3.5 0 4.9 -2.7 4.7 -3.6 -0.2 -0.9 -5.1 -2.2 -7.5 -3.7 -6.7 -0.7 0.4 -0.9 0.4 -0.5 -0.1 0.9 -0.9 -0.9 -3.5 -2.4 -3.5 -0.6 0 -0.8 1.3 -0.6 3 0.3 1.6 0.2 2.7 -0.1 2.4 -0.3 -0.3 -1.1 1.4 -1.6 3.8 -1.3 5 -4.5 6.7 -4.5 2.4z"/>
  <path d="M0 44.8 c0 -3 1.3 -5.8 2.6 -5.8 0.9 0 1.4 1.2 1.4 3.5 0 2.8 -0.4 3.5 -2 3.5 -1.1 0 -2 -0.6 -2 -1.2z"/>
  <path d="M253 42.5 c0 -2.8 1.5 -3.4 2.4 -0.9 1 2.5 0.7 3.4 -0.9 3.4 -0.9 0 -1.5 -0.9 -1.5 -2.5z"/>
  <path d="M1.5 36.3 c0.4 -1 1 -2.6 1.2 -3.5 1 -3.3 3.3 -2 3.3 1.7 0 3.1 -0.3 3.5 -2.6 3.5 -2.1 0 -2.5 -0.3 -1.9 -1.7z"/>
  <path d="M9.1 20.9 c2.8 -4 7.8 -9 11.8 -11.8 l3.1 -2.2 0 3 c0 2.6 -0.4 3.1 -2.5 3.1 -1.7 0 -2.5 0.5 -2.5 1.8 0 2.3 -1.9 4.2 -4.2 4.2 -1.3 0 -1.8 0.8 -1.8 2.5 0 2.1 -0.5 2.5 -3.1 2.5 l-3 0 2.2 -3.1z"/>
  <path d="M237.3 16.5 c-0.7 -0.8 -1.3 -2.6 -1.3 -4 0 -2.5 0.1 -2.5 2.4 -1 1.4 0.9 3.2 2.7 4.1 4.1 1.5 2.3 1.5 2.4 -1.2 2.4 -1.6 -0.1 -3.4 -0.7 -4 -1.5z"/>
  <path d="M226 7.5 c0 -1 -1.1 -1.5 -3.5 -1.5 -2.8 0 -3.5 -0.4 -3.5 -2 0 -1.1 0.7 -2 1.5 -2 2.1 0 12.5 5.1 12.5 6.1 0 0.5 -1.6 0.9 -3.5 0.9 -2.4 0 -3.5 -0.5 -3.5 -1.5z"/>
  <path d="M34 3.6 c0 -1.3 2.8 -2.6 5.8 -2.6 0.6 0 1.2 0.9 1.2 2 0 1.6 -0.7 2 -3.5 2 -2.3 0 -3.5 -0.5 -3.5 -1.4z"/>
 </g>
 <g fill="#2e2f38">
  <path d="M169.3 241.7 c-5.2 -1.5 -6.4 -2.6 -3.5 -3.4 1.2 -0.3 1.9 -1 1.6 -1.5 -0.3 -0.5 0.3 -1.2 1.4 -1.5 1.8 -0.4 1.8 -0.8 -1.4 -6.1 -1.9 -3.1 -3.4 -6.3 -3.4 -7.2 0 -2.3 8 -11.5 9.9 -11.3 12.3 1.6 15.7 2.4 17 4 1.3 1.7 1.3 1.7 0.7 -0.2 -0.5 -1.3 0.7 -4.6 3.6 -10.2 4 -7.6 4.5 -8.2 7.8 -8.6 l3.5 -0.4 -4 -0.1 c-3.5 -0.2 -4.6 -0.9 -8.3 -5.2 -2.4 -2.8 -4.8 -4.7 -5.4 -4.4 -0.6 0.4 -0.8 0.2 -0.5 -0.3 0.4 -0.6 -0.2 -1.8 -1.1 -2.7 -1.7 -1.4 -2 -1.4 -3.8 -0.1 -1.8 1.5 -1.8 1.5 0.9 0.9 1.5 -0.3 2.7 -0.2 2.7 0.3 0 0.5 -0.9 0.9 -2.1 1 -1.1 0.1 -4.6 1.7 -7.7 3.5 -5 3 -5.7 3.8 -6.5 7.6 -0.5 2.6 -0.4 6.2 0.2 9 0.9 4.6 0.9 4.8 -3.2 9.9 -2.3 2.9 -5 5.2 -6 5.3 -2.7 0 -10.6 -4 -12.5 -6.5 -1.7 -2.2 -1.8 -2.1 -1.7 4.1 0 5.9 -0.2 6.4 -2.2 6.4 -1.3 0 -2.4 -0.8 -2.8 -2.1 -0.5 -1.3 -1 -1.7 -1.4 -1.1 -0.5 0.8 -6.7 1.2 -18.1 1.4 l-17.5 0.3 -0.3 2.8 c-0.2 1.5 0.1 2.7 0.7 2.7 0.6 0 1.1 0.8 1.1 1.9 0 2.2 -2.6 3.1 -9.7 3.1 -5.2 0 -5.3 0 -5.3 3 0 2 0.5 3 1.5 3 0.8 0 1.5 0.7 1.5 1.5 0 1.1 -1.2 1.5 -4.9 1.5 -4.8 0 -4.8 0 -5.5 -3.7 -1.1 -6.8 -0.8 -8.3 1.9 -9.3 2.4 -0.9 2.5 -1.3 2.5 -9.4 0 -6.9 0.3 -8.5 1.7 -9 0.9 -0.4 7.8 -0.4 15.2 0 7.5 0.3 17.7 0.6 22.7 0.7 l9.1 0.2 -0.5 -11.7 -0.5 -11.8 2.6 0 c2.4 0 2.5 0.2 1.7 3.1 -0.7 2.4 -0.5 3.4 1.1 5 1 1 1.9 2.5 1.9 3.2 0.1 0.6 0.7 -0.2 1.4 -1.9 2.1 -4.7 8.7 -11.6 10.5 -11.1 0.9 0.3 2.5 0.8 3.6 1.2 1.3 0.4 1.2 0.1 -0.5 -0.9 -1.4 -0.8 -3.3 -1.5 -4.2 -1.6 -1.3 0 -1.8 -0.8 -1.8 -2.7 0 -4.8 1.2 -10.3 2.1 -9.7 0.5 0.3 0.9 -0.1 0.9 -0.9 0 -1.8 3.5 -5 9 -8.1 2.5 -1.4 4 -2.6 3.4 -2.6 -1.1 0 -8.2 4.6 -12.5 8.1 -1.6 1.3 -4.1 2.1 -6.3 2.1 -2 0 -3.6 0.4 -3.6 0.9 0 0.5 -1.1 0.9 -2.5 0.9 -2.2 0 -2.5 0.5 -3.1 6 l-0.7 6 -3.3 0 c-3.3 0 -3.4 -0.1 -3.4 -3.9 0 -7.3 1 -10.1 3.6 -10.1 1.9 0 2.4 -0.5 2.4 -2.5 0 -1.6 0.6 -2.5 1.5 -2.5 0.8 0 1.5 -0.4 1.5 -1 0 -0.5 1.6 -1 3.5 -1 2.4 0 3.5 0.5 3.5 1.5 0 1.9 0.9 1.9 4.8 -0.1 4.2 -2 4.9 -3.4 1.8 -3.4 -2.3 0 -2.6 -0.4 -2.6 -3.4 0 -3.1 0.3 -3.4 4.4 -4.5 6.9 -1.7 9.6 -1.5 9.6 0.9 0 1.1 0.4 2 0.9 2 1.1 0 2.1 -2.5 2.1 -5.6 0 -1.7 0.6 -2.4 2 -2.4 1.1 0 2 -0.4 2 -1 0 -0.5 0.7 -1 1.5 -1 0.8 0 1.5 -0.4 1.5 -1 0 -0.5 0.7 -1 1.5 -1 0.8 0 1.5 -0.4 1.5 -1 0 -0.5 1.6 -1 3.5 -1 3.3 0 3.5 0.2 3.5 3.5 0 2.4 -0.5 3.5 -1.5 3.5 -0.8 0 -1.5 0.5 -1.5 1 0 0.6 -0.7 1 -1.5 1 -0.8 0 -1.5 0.5 -1.5 1 0 0.6 -0.9 1 -2 1 -1.1 0 -2 0.4 -2 1 0 0.5 -1.1 1.2 -2.5 1.6 -1.4 0.3 -2.3 1 -2 1.4 0.3 0.5 -0.1 1.3 -0.9 1.7 -1 0.6 -0.2 0.9 2.5 0.9 2.2 0.1 6.2 1.3 9 2.8 4 2 5.9 2.5 9 2 3.5 -0.6 3.9 -0.4 3.9 1.5 0 1.4 -0.6 2.1 -2 2.1 -1.1 0 -2 0.3 -2 0.8 -0.1 0.4 -0.5 2.6 -0.9 4.9 -0.7 3.8 -0.6 4.4 2 6.9 1.6 1.5 2.9 3.8 2.9 5.1 0 1.5 0.6 2.3 1.8 2.3 1 0 2.3 0.5 2.9 1.1 0.6 0.6 2.8 0.9 4.9 0.7 3.5 -0.3 4 -0.7 5.1 -4.1 1.4 -4.2 0.3 -8.1 -2.9 -10.5 -1 -0.7 -1.8 -2 -1.8 -2.8 0 -0.8 -0.6 -1.4 -1.4 -1.4 -0.7 0 -1.9 -0.7 -2.6 -1.5 -0.7 -0.8 -2.1 -1.5 -3.1 -1.5 -1.2 0 -1.9 -0.7 -1.9 -2 0 -1.6 0.7 -2 3.1 -2 2.5 0 4.2 1.1 7.8 4.8 2.6 2.6 5.5 5.8 6.4 7.2 l1.8 2.5 -1.2 -2.5 c-0.7 -1.3 -3.4 -4.8 -6.1 -7.7 -2.8 -2.8 -4.7 -5.6 -4.4 -6.2 0.4 -0.5 -0.2 -1.4 -1.1 -2 -1.5 -0.9 -1.2 -1 1.8 -1.1 3.5 0 3.7 0.2 4.3 4 0.3 2.2 1.2 4 1.9 4 1.6 0.1 5.7 3.5 5.7 4.9 0 0.6 0.4 1.1 0.9 1.1 0.5 0 1.3 0.9 1.6 2 0.3 1.1 1.3 2 2.1 2 0.9 0 1.4 1.1 1.4 3.5 l0 3.4 -2.6 -2.4 c-3.6 -3.3 -4.2 -3.2 -4.9 1.3 -1.4 7.8 -2.5 10.1 -5.3 10.5 -2.6 0.4 -2.6 0.4 0.4 0.6 2.6 0.1 3.4 0.8 5.2 4.9 2.4 5.1 2.9 8.5 1.7 11.7 -0.4 1.1 0.2 0.5 1.4 -1.2 2.5 -4 4.3 -4.3 3.6 -0.5 -0.4 2.2 -0.4 2.4 0.4 0.7 0.5 -1.1 1 -3 1 -4.3 0.1 -1.5 0.5 -2.1 1.2 -1.6 2.6 1.6 -1.5 16.7 -5.8 21.2 -1 1 -2.3 2.7 -2.9 3.8 -0.6 1 -2.3 2 -3.8 2.2 -2.7 0.3 -2.7 0.3 1.8 -5.3 4.3 -5.2 5.1 -6.5 4.3 -6.5 -0.2 0 -1.8 2 -3.6 4.5 -1.8 2.5 -3.6 4.5 -4.1 4.5 -1.4 0 0.6 -5.5 3.4 -9.6 1.4 -2.1 2.6 -4.3 2.6 -4.8 0 -0.6 -1.3 1.1 -2.9 3.6 -1.9 2.9 -4 4.9 -6.1 5.7 -4.9 1.6 -7 1.4 -7 -0.8 0 -1.5 1 -2.1 4 -2.6 2.3 -0.4 4 -1.2 4 -2 0 -0.7 0.3 -1.5 0.8 -1.7 1 -0.4 4.2 -7.5 4.2 -9.3 0 -0.8 -0.8 -3 -1.7 -5 -1.4 -2.9 -2.2 -3.5 -4.7 -3.5 -4.3 0 -4.9 0.6 -8.6 7.9 -3.1 6.3 -3.2 6.5 -1.6 9.8 2 4.1 2.1 8.3 0.3 8.3 -0.8 0 -2.2 -1.8 -3.2 -4 -1 -2.2 -2 -3.8 -2.2 -3.6 -0.3 0.2 0.3 1.8 1.1 3.5 2.4 4.6 2 6.1 -2.9 10.8 -4.9 4.7 -8.5 5.6 -8.5 2.3 0 -1.1 0.5 -2 1 -2 1.9 0 6.9 -6.5 7 -8.8 0 -1.3 -0.6 -3 -1.4 -3.8 -0.8 -0.7 -1.6 -1.8 -1.8 -2.3 -0.1 -0.5 -3.5 -1.3 -7.4 -1.6 l-7.1 -0.7 -1.1 3.1 c-0.6 1.7 -1.6 3.1 -2.1 3.1 -1.3 0 1.8 7 3.9 8.8 0.8 0.7 2.7 1.5 4.3 1.8 3.1 0.7 3.8 4 1 4.7 -1 0.3 0.3 0.5 2.8 0.6 2.7 0.1 5.2 0.7 5.9 1.5 1 1.3 0.4 1.6 -3.7 1.9 -2.8 0.3 -2.2 0.3 1.5 0.2 4.7 -0.2 6.2 0.1 6.2 1.1 0 1.8 -15.4 1.8 -21.7 0.1z m-66.1 -17.9 c0.2 -2.5 0 -4.4 -0.4 -4.1 -0.5 0.2 -0.7 3 -0.7 6.1 0.1 6.2 0.6 5.3 1.1 -2z m41.8 -5.2 c0 -1.1 -2.9 -6.9 -3 -5.8 0 0.6 -0.3 1.1 -0.7 1.1 -0.5 -0.1 -2.2 -0.1 -4 0 l-3.1 0.1 2.1 2.5 c1.5 1.7 3.3 2.5 5.5 2.5 1.7 0 3.2 -0.2 3.2 -0.4z m18.2 -4.7 c0.2 -1.7 3 -4.4 4.5 -4.4 0.2 0 -2.7 -14.8 -3 -15 -0.1 0 -1.9 -0.8 -4 -1.8 -5.1 -2.3 -7.7 -2.2 -7.7 0.3 0 1.1 -0.6 2.3 -1.4 2.6 -2.4 0.9 -2.8 5.4 -1.1 10.8 1.5 4.5 2.2 5.3 6.3 7.3 6 2.7 6 2.7 6.4 0.2z m-31.9 0.4 c-1.3 -0.2 -3.5 -0.2 -5 0 -1.6 0.2 -0.5 0.4 2.2 0.4 2.8 0 4 -0.2 2.8 -0.4z m44.3 -26.4 c3 -1.7 5.4 -3.3 5.4 -3.6 0 -0.3 -2.8 1.1 -6.3 3 -4.4 2.5 -6.7 3.3 -7.7 2.7 -0.8 -0.6 -1.9 -1 -2.5 -0.9 -0.5 0 0.2 0.7 1.8 1.5 1.8 1 2.8 2.3 2.9 4.2 0.1 2.4 0.2 2.3 0.5 -0.6 0.4 -2.7 1.3 -3.7 5.9 -6.3z m-3.6 -3.9 c0 -0.4 2 -1.6 4.5 -2.7 4.8 -1.9 6.5 -4.8 6.5 -10.7 0 -2.8 -0.5 -3.3 -4.5 -4.9 -4.4 -1.6 -4.7 -1.6 -9.2 0.6 -6.8 3.2 -10.3 7.2 -10.3 11.7 0 3.5 0.3 3.9 4.6 5.7 4.4 1.9 8.4 2 8.4 0.3z m-17.3 -5.7 c-0.3 -1 -0.5 -0.2 -0.5 1.7 0 1.9 0.2 2.7 0.5 1.8 0.2 -1 0.2 -2.6 0 -3.5z m32 -3 c-0.3 -1 -0.5 -0.2 -0.5 1.7 0 1.9 0.2 2.7 0.5 1.8 0.2 -1 0.2 -2.6 0 -3.5z"/>
  <path d="M133.8 232.2 c-1 -0.2 -1.8 -1 -1.8 -1.8 0 -1 1.3 -1.4 4.5 -1.4 3.3 0 4.5 0.4 4.5 1.5 0 0.8 -0.6 1.5 -1.2 1.6 -0.7 0 -2 0.2 -2.8 0.3 -0.8 0.1 -2.3 0.1 -3.2 -0.2z"/>
  <path d="M37 206.5 c0 -3.3 0.2 -3.5 3.5 -3.5 3.3 0 3.5 0.2 3.5 3.5 0 3.3 -0.2 3.5 -3.5 3.5 -3.3 0 -3.5 -0.2 -3.5 -3.5z"/>
  <path d="M26 201.6 c0 -3.7 1.2 -4.6 6.1 -4.6 2.6 0 2.9 0.3 2.9 3.4 0 3.7 -1.2 4.6 -6.1 4.6 -2.6 0 -2.9 -0.3 -2.9 -3.4z"/>
  <path d="M105 195.5 c0 -3.3 0.2 -3.5 3.5 -3.5 3.3 0 3.5 0.2 3.5 3.5 0 3.3 -0.2 3.5 -3.5 3.5 -3.3 0 -3.5 -0.2 -3.5 -3.5z"/>
  <path d="M113 183.8 c0 -1.8 -0.3 -5.7 -0.6 -8.5 l-0.7 -5.3 3.5 0 c4.2 0 4.8 1.3 4.8 10.8 l0 6.2 -3.5 0 c-3.3 0 -3.5 -0.2 -3.5 -3.2z"/>
  <path d="M92.3 161.3 c-1.9 -0.4 -2.3 -1.1 -2.3 -3.9 0 -3.7 1.2 -4.1 7.9 -2.8 2.7 0.6 3.1 1 3.1 4 0 3.2 -0.2 3.4 -3.2 3.3 -1.8 -0.1 -4.3 -0.4 -5.5 -0.6z"/>
  <path d="M81 154.5 c0 -3.2 0.2 -3.5 3 -3.5 2.3 0 3 -0.4 3 -2 0 -1.1 -0.4 -2 -1 -2 -0.5 0 -1 -1.6 -1 -3.5 0 -3.3 0.2 -3.5 3.5 -3.5 3.1 0 3.5 0.3 3.5 2.5 0 1.4 0.5 2.5 1 2.5 0.6 0 1 1.6 1 3.5 0 3.2 -0.2 3.5 -3 3.5 -2.7 0 -3 0.3 -3 3 0 2.8 -0.3 3 -3.5 3 -3.3 0 -3.5 -0.2 -3.5 -3.5z"/>
  <path d="M69 148.5 c0 -3.3 0.2 -3.5 3.5 -3.5 3.3 0 3.5 0.2 3.5 3.5 0 3.3 -0.2 3.5 -3.5 3.5 -3.3 0 -3.5 -0.2 -3.5 -3.5z"/>
  <path d="M159 148.6 c0 -3.6 1.5 -4.6 7.3 -4.6 2.4 0 2.7 0.4 2.7 3.4 0 3.6 -1.5 4.6 -7.2 4.6 -2.5 0 -2.8 -0.4 -2.8 -3.4z"/>
  <path d="M164 137.5 c0 -3.3 0.2 -3.5 3.5 -3.5 3.3 0 3.5 0.2 3.5 3.5 0 3.3 -0.2 3.5 -3.5 3.5 -3.3 0 -3.5 -0.2 -3.5 -3.5z"/>
  <path d="M189 137.5 c0 -3.3 0.2 -3.5 3.5 -3.5 3.3 0 3.5 0.2 3.5 3.5 0 3.3 -0.2 3.5 -3.5 3.5 -3.3 0 -3.5 -0.2 -3.5 -3.5z"/>
  <path d="M27 135.5 c0 -3.3 0.2 -3.5 3.5 -3.5 3.3 0 3.5 0.2 3.5 3.5 0 3.3 -0.2 3.5 -3.5 3.5 -3.3 0 -3.5 -0.2 -3.5 -3.5z"/>
  <path d="M27 121.5 c0 -3.3 0.2 -3.5 3.5 -3.5 3.3 0 3.5 0.2 3.5 3.5 0 3.3 -0.2 3.5 -3.5 3.5 -3.3 0 -3.5 -0.2 -3.5 -3.5z"/>
  <path d="M66.8 112.3 c-1.3 -0.3 -1.8 -1.5 -1.8 -3.9 0 -3 0.3 -3.4 2.8 -3.4 5.7 0 7.2 1 7.2 4.6 0 3.2 -0.2 3.4 -3.2 3.3 -1.8 -0.1 -4.1 -0.3 -5 -0.6z"/>
  <path d="M181 108.5 c0 -3.3 0.2 -3.5 3.5 -3.5 3.3 0 3.5 0.2 3.5 3.5 0 3.3 -0.2 3.5 -3.5 3.5 -3.3 0 -3.5 -0.2 -3.5 -3.5z"/>
  <path d="M198 105.5 c0 -3.3 0.2 -3.5 3.5 -3.5 3.3 0 3.5 0.2 3.5 3.5 0 3.3 -0.2 3.5 -3.5 3.5 -3.3 0 -3.5 -0.2 -3.5 -3.5z"/>
  <path d="M75 99.5 c0 -3.3 0.2 -3.5 3.5 -3.5 3.3 0 3.5 0.2 3.5 3.5 0 3.3 -0.2 3.5 -3.5 3.5 -3.3 0 -3.5 -0.2 -3.5 -3.5z"/>
  <path d="M171 99.5 c0 -3.3 0.2 -3.5 3.5 -3.5 3.3 0 3.5 0.2 3.5 3.5 0 3.3 -0.2 3.5 -3.5 3.5 -3.3 0 -3.5 -0.2 -3.5 -3.5z"/>
  <path d="M91 81.5 c0 -3.3 0.2 -3.5 3.5 -3.5 3.3 0 3.5 0.2 3.5 3.5 0 3.3 -0.2 3.5 -3.5 3.5 -3.3 0 -3.5 -0.2 -3.5 -3.5z"/>
  <path d="M64 80.5 c0 -2.4 0.5 -3.5 1.5 -3.5 0.8 0 1.5 -0.4 1.5 -1 0 -0.5 1.6 -1 3.5 -1 3.3 0 3.5 0.2 3.5 3.5 0 2.4 -0.5 3.5 -1.5 3.5 -0.8 0 -1.5 0.5 -1.5 1 0 0.6 -1.6 1 -3.5 1 -3.3 0 -3.5 -0.2 -3.5 -3.5z"/>
  <path d="M17 77.3 c0 -1 -0.3 -4.2 -0.6 -7 l-0.7 -5.3 3.5 0 c3.5 0 3.5 0 4.2 5.3 1 8.7 1 8.7 -2.9 8.7 -2.7 0 -3.5 -0.4 -3.5 -1.7z"/>
  <path d="M208.2 61.3 c0.2 -3.1 0.7 -3.9 2.6 -4.1 1.7 -0.3 2.2 -1 2.2 -3.3 0 -1.6 0.5 -2.9 1 -2.9 0.6 0 1 -0.7 1 -1.5 0 -1 1.1 -1.5 3.5 -1.5 3.3 0 3.5 0.2 3.5 3.5 0 1.9 -0.4 3.5 -1 3.5 -0.5 0 -1 0.7 -1 1.5 0 0.8 -0.9 1.5 -1.9 1.5 -1.5 0 -2.1 0.8 -2.3 3.3 -0.3 2.9 -0.6 3.2 -4.1 3.5 l-3.8 0.3 0.3 -3.8z"/>
  <path d="M45 60.5 c0 -3.3 0.2 -3.5 3.5 -3.5 3.3 0 3.5 0.2 3.5 3.5 0 3.3 -0.2 3.5 -3.5 3.5 -3.3 0 -3.5 -0.2 -3.5 -3.5z"/>
  <path d="M17 59.5 c0 -3.3 0.2 -3.5 3.5 -3.5 3.3 0 3.5 0.2 3.5 3.5 0 3.3 -0.2 3.5 -3.5 3.5 -3.3 0 -3.5 -0.2 -3.5 -3.5z"/>
  <path d="M46 52.5 c0 -3.3 0.2 -3.5 3.5 -3.5 3.3 0 3.5 0.2 3.5 3.5 0 3.3 -0.2 3.5 -3.5 3.5 -3.3 0 -3.5 -0.2 -3.5 -3.5z"/>
  <path d="M18 53.3 c0 -1 0.3 -4.2 0.6 -7 0.7 -5.2 0.7 -5.3 4 -5.3 3.8 0 3.8 0.1 2.8 8.8 -0.7 5.1 -0.7 5.2 -4 5.2 -2.6 0 -3.4 -0.4 -3.4 -1.7z"/>
  <path d="M1 38.8 c0.1 -2.3 2.1 -5.8 3.4 -5.8 0.3 0 0.6 1.8 0.6 4 0 3.3 -0.3 4 -2 4 -1.4 0 -2 -0.7 -2 -2.2z"/>
  <path d="M198.6 37.8 c-0.3 -1.3 -0.6 -3.5 -0.6 -5 0 -2.5 0.4 -2.8 3.4 -2.8 3.6 0 4.6 1.5 4.6 7.3 0 2.4 -0.4 2.7 -3.4 2.7 -2.6 0 -3.5 -0.5 -4 -2.2z"/>
  <path d="M237 14 c0 -2.7 0.2 -2.9 1.9 -1.9 1 0.7 2.3 2 3 3 1 1.7 0.8 1.9 -1.9 1.9 -2.7 0 -3 -0.3 -3 -3z"/>
 </g>
 <g fill="#00329d">
  <path d="M37.8 254.4 c-3.2 -0.7 -8.1 -2.5 -11 -4 -6.7 -3.4 -17.7 -14.4 -21 -20.9 -6 -11.8 -5.8 -8.2 -5.8 -100.4 0 -92.1 -0.1 -91 5.8 -102.6 3.2 -6.4 14.3 -17.5 20.8 -20.8 11.5 -5.8 9.7 -5.7 101.4 -5.7 91.7 0 90 -0.1 101.4 5.7 6.9 3.5 16.7 13.2 20.5 20.2 6.1 11.6 6.1 10.2 6.1 102.6 0 92.5 0.2 89.8 -6.2 101.7 -6.4 12 -20.4 22.3 -33.7 24.8 -3.3 0.6 -37.2 1 -89 0.9 -67.7 -0.1 -84.7 -0.3 -89.3 -1.5z m160.6 -16.5 c10.6 -3.9 18.3 -11.8 23.2 -23.6 1.8 -4.5 2.4 -7.6 2.4 -14.3 0 -10.7 -1.3 -15.5 -5.6 -20 -9.1 -9.6 -13.5 -15 -13 -15.9 1.7 -2.8 -13.2 -8.1 -22.8 -8.1 -7.2 0 -10.6 0.8 -10.6 2.4 0 0.7 -1.7 1.8 -3.7 2.5 -2.1 0.7 -6 3 -8.8 5.1 -2.7 2.1 -6 4.1 -7.2 4.4 -3.2 1 -11.5 16.7 -11.8 22.1 0 0.5 -0.8 1.1 -1.7 1.3 -2.8 0.5 -4.8 -4.8 -4.8 -13 0 -9.6 0.7 -11.6 4.3 -13.5 1.7 -0.8 5.4 -3.7 8.1 -6.3 4 -3.7 6.8 -5.3 12.6 -7.1 6.6 -2.1 7.1 -2.4 4.3 -2.7 -3 -0.3 -3.3 -0.6 -3.3 -3.6 0 -1.8 1.6 -6.7 3.5 -10.7 1.9 -4.1 4.5 -11.9 5.7 -17.3 2.1 -9.1 2.5 -10 5.3 -11.2 l3 -1.3 -3.2 -0.1 c-3.3 0 -3.3 0 -3.3 -5 0 -4 0.4 -5.1 2.1 -6.1 1.4 -0.7 1.8 -1.4 1.1 -2.1 -1.3 -1.3 -94.1 -1.3 -95.4 0 -0.7 0.7 -0.3 1.4 1.1 2.1 1.7 1 2.1 2.1 2.1 6.1 0 5 0 5 -3.2 5.1 l-3.3 0 3.3 1.7 c2 1 3.4 2.5 3.8 4.1 1.9 9.5 5 19.6 7.9 25.8 1.9 3.9 3.5 8.3 3.5 9.7 0 2.3 -0.4 2.6 -3.7 2.7 -3.5 0.1 -3.2 0.3 3.6 2.5 5.4 1.8 8.7 3.6 12 6.7 2.5 2.4 6.3 5.3 8.4 6.6 4.3 2.6 5.2 5.1 5.2 14.2 0 8.7 -3.7 15.1 -10.7 18.6 -4 2 -4.8 2.8 -4.8 5.2 0 2 -0.6 3 -2 3.4 -1.2 0.3 -2 1.4 -2 2.6 0 1.6 -0.6 2.1 -2.4 2.1 -5.2 0 -5.6 0.6 -5.6 9.6 0 8.1 -0.1 8.5 -2.5 9.4 -2.5 1 -3 2.5 -1.9 5.5 0.6 1.4 4.7 1.6 42.3 1.5 24.1 0 43.1 0.4 45.1 0.9 5.1 1.5 17 0.5 23.4 -2z m-142.1 -125.5 l-0.6 -8.7 6.9 0.5 c3.8 0.3 7.7 0.9 8.7 1.3 1.2 0.5 1.6 0.3 1.2 -0.7 -0.7 -1.8 -14.5 -4.1 -16.2 -2.7 -2 1.7 -2.5 6.5 -1.2 12.8 0.6 3.4 1.3 6.1 1.5 6.1 0.2 0 0.1 -3.9 -0.3 -8.6z m142 -2.6 c0.3 -8.2 -1.1 -9.4 -8.8 -7.4 -3.1 0.8 -5.9 1.7 -6.1 1.9 -0.3 0.2 2.8 0.2 6.7 -0.1 l7.2 -0.5 -0.6 8.9 c-0.4 6.4 -0.3 8.1 0.4 5.9 0.5 -1.6 1.1 -5.6 1.2 -8.7z m-105.4 -55 l0.1 -6.8 -11.5 0 -11.5 0 0 12.5 c0 6.9 0.3 12.5 0.8 12.5 0.4 0 1.8 -0.9 3.2 -2 3.7 -2.9 10.7 -2.6 14.5 0.5 l3 2.5 0.6 -6.3 c0.4 -3.4 0.7 -9.2 0.8 -12.9z m-47.5 5.2 c0.9 -6.3 1.6 -11.9 1.6 -12.5 0 -1 -14.7 -3.5 -20.3 -3.5 -1 0 -1.7 3.1 -2.6 12.1 -0.7 6.6 -1.1 12.3 -0.8 12.6 0.3 0.3 2.1 -0.4 4 -1.6 5.1 -3.1 8.7 -2.7 12.7 1.4 1.8 1.9 3.5 3.4 3.6 3.2 0.1 -0.1 0.9 -5.4 1.8 -11.7z m77.4 8.5 c3.7 -3.1 8.5 -3.3 13.1 -0.4 1.8 1.1 3.4 1.9 3.6 1.7 0.1 -0.2 -0.3 -5.2 -1.1 -11.3 -0.7 -6 -1.3 -11.3 -1.3 -11.8 -0.1 -0.9 -19.3 0.2 -20.2 1.2 -0.9 0.8 1.3 23.1 2.2 23.1 0.4 0 2.1 -1.1 3.7 -2.5z m53.7 -9.5 c2.2 0.1 5.1 0.7 6.5 1.5 1.4 0.8 2.8 1.4 3.1 1.5 0.3 0 -0.6 -5.5 -2 -12.3 l-2.5 -12.3 -10.5 2.4 c-5.9 1.3 -10.7 2.5 -10.9 2.6 -0.1 0.2 1 5.5 2.5 11.9 l2.8 11.6 3.5 -3.5 c2.9 -2.7 4.4 -3.4 7.5 -3.4z m38.9 -10 c2.2 -3.4 3.1 -4 6.1 -4 2 0 5.1 0.6 6.9 1.4 l3.4 1.4 -3.8 -10.6 c-2.1 -5.9 -3.9 -11.4 -4.1 -12.3 -0.3 -1.4 -1.8 -1.1 -10 2 l-9.6 3.7 3.9 11.2 c2.2 6.2 4.1 11.2 4.3 11.2 0.1 0 1.4 -1.8 2.9 -4z"/>
  <path d="M176.2 238.9 c-6 -1 -10.2 -2.8 -6.7 -2.9 4 -0.1 17.5 2.4 17.5 3.2 0 1 -3.7 0.9 -10.8 -0.3z"/>
  <path d="M211.8 226 c1.3 -4.5 7.7 -16.7 9.4 -17.8 1.5 -1 1.5 -0.8 0.8 1.9 -1.5 5 -4.7 11.1 -7.9 14.9 -2.7 3.1 -2.9 3.2 -2.3 1z"/>
  <path d="M207.5 170.8 c-2.8 -2.8 -3.8 -4.2 -2.3 -3.1 2.5 1.9 8.4 8.3 7.6 8.3 -0.2 0 -2.6 -2.3 -5.3 -5.2z"/>
  <path d="M156 171.7 c0 -1.3 5.7 -5.9 10.2 -8.3 6.7 -3.4 7.4 -2.9 0.8 0.7 -3 1.6 -6.7 4.2 -8.2 5.6 -1.6 1.5 -2.8 2.4 -2.8 2z"/>
 </g>
 <g fill="#00a543">
  <path d="M103.7 231.3 c-1.5 -1.5 -0.7 -4.3 1.3 -4.3 1.5 0 2 0.7 2 2.5 0 2.4 -1.8 3.4 -3.3 1.8z"/>
  <path d="M31.8 210.3 c-5.2 -2.9 -5.7 -4.2 -3.1 -7.7 l1.8 -2.3 4.7 2.6 c5.1 2.8 5.8 4.6 3.1 8 l-1.8 2.1 -4.7 -2.7z"/>
  <path d="M64.2 211.2 c-4 -1.9 -3.7 -3.5 0.9 -4.3 2.9 -0.6 3 -0.7 0.7 -0.8 l-2.7 -0.1 2.6 -4.5 c2.6 -4.8 3.3 -5.1 6.4 -3.5 2.6 1.4 2.4 2.7 -0.6 3.4 -3.2 0.8 -3.2 2.6 0 2.6 l2.4 0 -2 3.4 c-3 5.1 -3.9 5.6 -7.7 3.8z"/>
  <path d="M96 209.2 c0 -1.9 1.8 -4.2 3.2 -4.2 0.4 0 0.8 1.4 0.8 3 0 2.3 -0.4 3 -2 3 -1.3 0 -2 -0.7 -2 -1.8z"/>
  <path d="M112.9 190.8 c2.8 -4.5 4.1 -4.6 4.1 -0.4 0 3.4 -0.2 3.6 -3.1 3.6 l-3.1 0 2.1 -3.2z"/>
  <path d="M84 149.5 c0 -1 -1.1 -1.5 -3.5 -1.5 -2.4 0 -3.5 -0.5 -3.5 -1.5 0 -2.2 -4.8 -2 -5.2 0.3 -0.3 1.3 -1.6 0.6 -6.1 -3.7 -6.3 -6 -12.2 -16.5 -13.3 -23.8 -0.6 -3.9 -0.5 -4.3 1.5 -4.3 1.2 0 2.1 -0.6 2.1 -1.5 0 -0.8 0.9 -1.5 2 -1.5 1.5 0 2 0.7 2 2.8 0 1.5 0.4 4.2 0.9 6 0.9 2.8 0.7 3.2 -1 3.2 -1.7 0 -1.8 0.3 -0.8 2.3 0.7 1.2 1.6 3.8 2 5.7 l0.7 3.5 0.1 -3.7 c0 -2.1 0.5 -3.8 0.9 -3.8 0.5 0 2.2 2 3.9 4.4 3.8 5.4 7.9 8.5 17.1 13 3.9 2 7.2 4.1 7.2 4.6 0 0.6 -1.6 1 -3.5 1 -2.4 0 -3.5 -0.5 -3.5 -1.5z m-16 -7.9 c0 -0.2 -0.7 -0.9 -1.5 -1.6 -1.2 -1 -1.5 -1 -1.5 0.4 0 0.9 0.7 1.6 1.5 1.6 0.8 0 1.5 -0.2 1.5 -0.4z"/>
  <path d="M159 147.5 c0 -3.1 0.3 -3.5 2.5 -3.5 2.8 0 2.9 0.3 1.5 3 -0.8 1.5 -0.6 1.7 1 1.3 1.4 -0.4 2 0 2 1.1 0 1.2 -0.9 1.6 -3.5 1.6 -3.3 0 -3.5 -0.2 -3.5 -3.5z"/>
  <path d="M90 146.3 c-0.8 -1.6 -1.6 -3.1 -1.8 -3.5 -0.2 -0.5 0.8 -0.8 2.2 -0.8 2.3 0 2.6 0.4 2.6 3.5 0 4.2 -1.2 4.5 -3 0.8z"/>
  <path d="M169 146.8 c0.1 -0.7 1.6 -2 3.5 -2.9 l3.5 -1.6 0 2.8 c0 2.6 -0.3 2.9 -3.5 2.9 -2.2 0 -3.5 -0.5 -3.5 -1.2z"/>
  <path d="M183.1 136.2 c1.9 -2.2 3.8 -4.1 4.2 -4.1 0.5 -0.1 0.7 1.6 0.5 3.7 -0.3 3.5 -0.5 3.7 -4.2 4 l-4 0.3 3.5 -3.9z"/>
  <path d="M191.1 134.2 c0.4 -3.5 0.2 -4.2 -1.3 -4.2 -1.7 0 -1.7 -0.2 -0.1 -3.5 1.5 -3.2 4.3 -4.8 4.3 -2.5 0 0.6 1.1 1 2.5 1 1.4 0 2.5 0.2 2.5 0.5 0 1.4 -5 10.3 -6.5 11.5 -1.6 1.3 -1.7 1.1 -1.4 -2.8z"/>
  <path d="M29.2 134.3 c-1.1 -1 -2.8 -3 -3.7 -4.5 -1.7 -2.7 -1.7 -2.8 0.4 -2.8 1.4 0 2.1 -0.6 2.1 -2 0 -1.1 -0.4 -2 -1 -2 -1.6 0 -1.1 -2.7 0.6 -3.4 2.1 -0.8 2.4 -0.8 2.4 0.5 0 0.6 0.9 2.4 2.1 4 l2 2.9 -2 0 c-1.4 0 -2.1 0.6 -2.1 2 0 1.1 0.7 2 1.5 2 0.9 0 1.5 0.9 1.5 2.5 0 2.9 -1 3.1 -3.8 0.8z"/>
  <path d="M83 130.7 c0 -0.1 -0.4 -1.7 -0.9 -3.5 -0.9 -3 -0.8 -3.2 1.5 -3.2 2.1 0 2.4 0.5 2.4 3.5 0 2.4 -0.5 3.5 -1.5 3.5 -0.8 0 -1.5 -0.1 -1.5 -0.3z"/>
  <path d="M80.6 121.4 c-1.2 -3.2 -0.6 -5.4 1.4 -5.4 1.6 0 2 0.7 2 3.5 0 3.7 -2.2 4.9 -3.4 1.9z"/>
  <path d="M197 121 c0 -0.5 -1 -1 -2.3 -1 -2 0 -2.2 -0.4 -1.9 -4 0.3 -3.1 0.8 -4 2.3 -4 1 0 1.9 0.7 1.9 1.5 0 0.8 0.9 1.5 2 1.5 2 0 2.6 2.2 1.4 5.4 -0.7 1.7 -3.4 2.2 -3.4 0.6z"/>
  <path d="M170 114.6 c0 -3.5 0.1 -3.6 3.7 -3.6 3.1 0 3.4 0.2 2.1 1.3 -0.9 0.6 -1.8 2.1 -2 3.2 -0.2 1.1 -1.1 2.1 -2.1 2.3 -1.4 0.3 -1.7 -0.4 -1.7 -3.2z"/>
  <path d="M51 109 c0 -4.3 0.3 -5 2 -5 1.7 0 2 0.7 2 5 0 4.3 -0.3 5 -2 5 -1.7 0 -2 -0.7 -2 -5z"/>
  <path d="M197.8 108.8 c-0.1 -3.6 -0.2 -4.3 -0.5 -2 -0.4 3.3 -3.3 4.7 -3.3 1.6 0 -1.3 -0.8 -1.5 -5 -0.9 -4.2 0.6 -5 0.4 -5 -0.9 0 -1.2 -1 -1.6 -3.5 -1.6 -2.3 0 -3.5 -0.5 -3.5 -1.4 0 -1.4 0.3 -1.6 8.8 -3.9 l5.2 -1.5 0 2.4 c0 2.1 0.4 2.4 3.3 2.3 2.3 -0.1 2.6 -0.3 1 -0.6 -1.5 -0.3 -2.3 -1.2 -2.3 -2.4 0 -1.4 0.7 -1.9 2.9 -1.9 4 0 5.3 2.1 5.8 9.5 0.5 6.1 0.4 6.5 -1.6 6.5 -1.8 0 -2.1 -0.6 -2.3 -5.2z"/>
  <path d="M57 106.5 c0 -3.9 0.7 -4.1 8.3 -2.9 2.8 0.5 3.7 1.1 3.7 2.6 0 1.8 -0.5 1.9 -5 1.3 -4.2 -0.6 -5 -0.4 -5 0.9 0 0.9 -0.4 1.6 -1 1.6 -0.5 0 -1 -1.6 -1 -3.5z"/>
  <path d="M52 101.7 c0 -2.3 2.3 -3.7 6.2 -3.7 3 0 3.8 0.4 3.8 1.9 0 1.4 -1 2 -3.7 2.5 -5.4 0.8 -6.3 0.8 -6.3 -0.7z"/>
  <path d="M221.4 98.8 c-1.6 -3 -1.6 -3.3 0.1 -4.3 1 -0.5 3.8 -2.7 6.1 -4.8 l4.2 -3.8 2.5 2.7 c2.4 2.5 2.4 2.9 1 5 -1.4 2.3 -9.8 8.4 -11.4 8.4 -0.5 0 -1.6 -1.4 -2.5 -3.2z"/>
  <path d="M75.2 92.3 c0.2 -1.2 1.4 -1.9 3.6 -2.1 2.7 -0.3 3.2 0 3.2 1.7 0 1.7 -0.6 2.1 -3.6 2.1 -2.8 0 -3.5 -0.3 -3.2 -1.7z"/>
  <path d="M171 91.9 c0 -1.7 0.5 -2 3.2 -1.7 2.2 0.2 3.4 0.9 3.6 2.1 0.3 1.4 -0.4 1.7 -3.2 1.7 -3 0 -3.6 -0.4 -3.6 -2.1z"/>
  <path d="M39.6 74 l-6 -5.7 -7 3.8 c-7 3.8 -9.2 4.6 -8.3 3.2 0.3 -0.5 0.8 -3.7 1.2 -7.3 0.3 -3.6 0.8 -7.6 1 -9 0.2 -1.4 0.7 -5 1 -8 0.4 -3 0.9 -5.8 1.1 -6.2 0.2 -0.4 -0.5 -0.9 -1.6 -1.3 -3 -1 -2.5 -3.5 0.8 -3.5 2.6 0 24.4 2.7 29 3.6 1.4 0.3 2.2 1.2 2.2 2.5 0 1.1 -0.4 1.8 -0.9 1.4 -1.4 -0.8 -1.9 0.5 -2.6 6.2 -0.3 2.7 -0.7 5.8 -0.9 6.9 -0.2 1 -0.7 5.3 -1.1 9.5 -0.4 4.2 -1 8.1 -1.4 8.6 -0.3 0.5 -3.3 -1.6 -6.5 -4.7z"/>
  <path d="M86.5 75.5 l-5 -4.5 3.8 0 c2.6 0 3.7 0.4 3.7 1.5 0 0.8 0.9 1.5 2 1.5 1.6 0 2 0.7 2 3 0 1.7 -0.3 3 -0.7 3 -0.5 -0.1 -3 -2.1 -5.8 -4.5z"/>
  <path d="M92 56.5 c0 -3.8 0.3 -4.5 2 -4.5 1.7 0 2 0.7 2 4.5 0 3.8 -0.3 4.5 -2 4.5 -1.7 0 -2 -0.7 -2 -4.5z"/>
  <path d="M210.5 59.8 c-0.3 -0.7 -2.5 -7.1 -4.9 -14.3 -2.9 -8.5 -5 -13.1 -6 -13.3 -3.3 -0.7 -1.7 -3.9 2.7 -5.1 2.3 -0.7 8 -2.8 12.6 -4.7 10.2 -4.1 18.7 -4.7 13.6 -1 -1.4 1 -1 2.9 3.6 15.9 2.8 8.1 4.9 15 4.6 15.3 -0.3 0.3 -3.8 -0.6 -7.8 -2 -3.9 -1.4 -7.6 -2.3 -8.1 -2 -0.5 0.4 -2.5 3 -4.4 5.9 -3.8 6 -5.2 7.2 -5.9 5.3z"/>
  <path d="M67 54.5 c0 -4.2 -0.3 -5.5 -1.5 -5.5 -0.8 0 -1.5 -0.7 -1.5 -1.5 0 -1 1.1 -1.5 3.5 -1.5 l3.5 0 0 7 c0 6.3 -0.2 7 -2 7 -1.8 0 -2 -0.7 -2 -5.5z"/>
 </g>
 <g fill="#165ee4">
  <path d="M183 238.5 c0 -1.7 0.2 -1.8 2.4 -0.9 2.3 0.9 2 2.4 -0.4 2.4 -1.1 0 -2 -0.7 -2 -1.5z"/>
  <path d="M174 237.7 c0 -0.9 1.1 -1.2 3.5 -0.9 1.9 0.2 3.5 0.8 3.5 1.3 0 0.5 -1.6 0.9 -3.5 0.9 -2.2 0 -3.5 -0.5 -3.5 -1.3z"/>
  <path d="M175.8 235.3 c-3.3 -0.8 -2 -3.3 1.7 -3.3 2.8 0 3.5 0.4 3.5 2 0 2 -1.4 2.3 -5.2 1.3z"/>
  <path d="M193 225.8 c0 -2.1 -0.5 -2.8 -2 -2.8 -1.6 0 -2 -0.7 -2 -3.5 0 -4.8 1.7 -4.4 4 1.1 1.4 3.2 1.7 5.1 1 6.2 -0.8 1.4 -0.9 1.2 -1 -1z"/>
  <path d="M195 221.3 c-0.8 -2.1 -1.6 -4.1 -1.8 -4.5 -0.2 -0.5 0.3 -0.8 1.2 -0.8 1 0 1.6 0.9 1.6 2.5 0 1.8 0.5 2.5 2 2.5 1.3 0 2 0.7 2 2 0 3.6 -3.5 2.4 -5 -1.7z"/>
  <path d="M168 216 c3.1 -4.4 4 -4.5 4 -0.6 0 3.3 -0.2 3.6 -3.1 3.6 l-3 0 2.1 -3z"/>
  <path d="M165 214.7 c0 -2.1 0.5 -2.7 2.2 -2.7 2.1 0 2.1 0 0.2 2.3 -1 1.2 -2 2.4 -2.1 2.6 -0.2 0.2 -0.3 -0.8 -0.3 -2.2z"/>
  <path d="M67 211.2 c0 -1.2 -0.4 -2.2 -1 -2.2 -0.5 0 -1 0.4 -1 0.9 0 0.5 -0.9 0.7 -2 0.4 -2.5 -0.7 -2.5 -0.9 0.3 -4.7 1.2 -1.7 2.9 -4.3 3.6 -5.9 1.1 -2.1 1.9 -2.6 3.5 -2.1 3.8 1.1 5.1 3 3.8 5.6 -1.7 3.2 -3.4 5.9 -5.4 8.2 -1.8 2 -1.8 2 -1.8 -0.2z m3 -6.2 c0 -0.5 -0.7 -1 -1.5 -1 -0.8 0 -1.5 0.5 -1.5 1 0 0.6 0.7 1 1.5 1 0.8 0 1.5 -0.4 1.5 -1z"/>
  <path d="M144 210 c0 -2 -0.5 -3 -1.5 -3 -1.7 0 -2 -5 -0.5 -8.5 0.9 -2.4 1.4 -1.5 2.9 6 0.5 2.8 1.3 5.8 1.6 6.8 0.5 1.2 0.2 1.7 -0.9 1.7 -1.1 0 -1.6 -0.9 -1.6 -3z"/>
  <path d="M148.1 211.2 c-1.7 -3.2 -3 -12.6 -2 -14.4 2 -3.7 3.2 -1.9 2.5 3.7 -0.5 4.5 -0.3 5.5 0.9 5.5 1 0 1.5 1 1.5 3.5 0 3.8 -1.3 4.6 -2.9 1.7z"/>
  <path d="M97 207 c0.6 -1.1 1.7 -2 2.5 -2 0.8 0 1.5 -1.3 1.7 -3.2 0.2 -2.5 1 -3.4 3.6 -4.5 3.1 -1.3 3.2 -1.2 3.2 1.1 0 1.7 -0.9 2.8 -3 3.8 -2.3 1 -3 1.9 -3 4 0 2.4 -0.4 2.8 -3 2.8 -2.8 0 -3 -0.2 -2 -2z"/>
  <path d="M205 197.6 c0 -1.3 2.8 -2.6 5.8 -2.6 0.6 0 1.2 0.9 1.2 2 0 1.6 -0.7 2 -3.5 2 -2.3 0 -3.5 -0.5 -3.5 -1.4z"/>
  <path d="M111.1 193.3 c0.8 -1 1.6 -2 1.9 -2.3 1.9 -1.9 3.7 -8.2 3.5 -12.2 -0.3 -4.1 0 -4.8 1.6 -4.8 1.6 0 1.9 0.8 1.9 5.3 0 5.9 -1.6 12.7 -3 12.7 -0.6 0 -1 0.7 -1 1.5 0 1 -1 1.5 -3.1 1.5 -2.9 0 -3 -0.2 -1.8 -1.7z"/>
  <path d="M205 193 c0 -0.5 1.6 -1 3.5 -1 1.9 0 3.5 0.5 3.5 1 0 0.6 -1.6 1 -3.5 1 -1.9 0 -3.5 -0.4 -3.5 -1z"/>
  <path d="M179 181.5 c0 -2.1 0.5 -2.5 3 -2.5 3.6 0 3.8 1.3 0.8 3.4 -3.1 2.2 -3.8 2 -3.8 -0.9z"/>
  <path d="M155.8 180.3 c-0.6 -2.8 0.2 -5.3 1.8 -5.3 0.9 0 1.4 1.1 1.4 3.5 0 3.7 -2.4 5 -3.2 1.8z"/>
  <path d="M215 176.6 c-3.4 -5 -4.1 -7.9 -1.2 -5.3 2.5 2.3 6.6 9.7 5.3 9.7 -0.5 0 -2.4 -2 -4.1 -4.4z"/>
  <path d="M51.5 174.2 c-1.1 -1 -3.1 -3 -4.4 -4.5 l-2.5 -2.7 2.8 -2.9 2.7 -2.8 4.9 4.5 4.8 4.6 -2.2 2.8 c-2.5 3.2 -3.4 3.3 -6.1 1z m1.5 -6.7 c0 -0.8 -0.9 -1.5 -2 -1.5 -1.1 0 -2 0.7 -2 1.5 0 0.8 0.9 1.5 2 1.5 1.1 0 2 -0.7 2 -1.5z"/>
  <path d="M110.6 169.5 c-2.7 -1.9 -5.6 -4.1 -6.5 -5 -1.4 -1.3 -1.2 -1.5 2.2 -1.5 3 0 3.7 0.4 3.7 2 0 1.6 0.7 2 3 2 2.7 0 3 0.3 3 3 0 1.7 -0.1 3 -0.2 2.9 -0.2 0 -2.5 -1.5 -5.2 -3.4z"/>
  <path d="M157 170.2 c0 -0.4 0.9 -1.3 2 -2 1.8 -1.1 2 -1 2 0.8 0 1.3 -0.7 2 -2 2 -1.1 0 -2 -0.3 -2 -0.8z"/>
  <path d="M155.3 167 c1.9 -1.6 4.1 -3 4.8 -3 1.8 0.1 -5.1 6 -6.8 6 -0.8 0 0.2 -1.3 2 -3z"/>
  <path d="M190 167.6 c0 -1.3 2.8 -2.6 5.8 -2.6 0.6 0 1.2 0.9 1.2 2 0 1.6 -0.7 2 -3.5 2 -2.3 0 -3.5 -0.5 -3.5 -1.4z"/>
  <path d="M206 166.5 c-2.1 -2.5 -0.1 -3.1 2.3 -0.7 1.7 1.8 1.8 2.2 0.5 2.2 -0.8 0 -2.1 -0.7 -2.8 -1.5z"/>
  <path d="M167.3 162.9 c2.1 -1.1 4.4 -1.8 5 -1.5 0.7 0.2 0.4 0.5 -0.5 0.5 -1 0.1 -1.8 0.8 -1.8 1.6 0 1 -1 1.5 -3.2 1.5 l-3.3 -0.1 3.8 -2z"/>
  <path d="M174 163 c0 -2.1 1 -2.4 4.8 -1.4 3.6 1 2.7 3.4 -1.3 3.4 -2.8 0 -3.5 -0.4 -3.5 -2z"/>
  <path d="M163 162.1 c0 -0.8 6.4 -4.1 8 -4.1 2.5 0 0.6 1.7 -3.5 3.2 -2.5 1 -4.5 1.4 -4.5 0.9z"/>
  <path d="M80 152.8 c-2.8 -1 -9.4 -5.3 -12.4 -8 -1.9 -1.8 -1.9 -1.8 0.7 -1.8 2 0 2.7 -0.5 2.7 -2 0 -2.3 1.3 -2.6 3.2 -0.6 0.8 0.7 2.4 1.7 3.6 2 1.2 0.4 2.2 1.2 2.2 1.7 0 0.5 0.7 0.9 1.6 0.9 1.9 0 7.4 3.1 7.4 4.2 0 0.4 -1.3 0.8 -2.9 0.8 -2.1 0 -3.1 0.5 -3.3 1.9 -0.2 1.5 -0.7 1.7 -2.8 0.9z"/>
  <path d="M164 149.2 c0 -0.9 5.4 -4.2 6.9 -4.2 0.6 0 3.3 -1.6 6.1 -3.6 l5 -3.6 0 3.1 c0 2.1 -0.5 3.1 -1.5 3.1 -0.8 0 -1.5 0.5 -1.5 1 0 0.6 -1.3 1 -3 1 -1.9 0 -3 0.5 -3 1.4 0 0.8 -0.7 1.7 -1.6 2 -2.3 0.9 -7.4 0.7 -7.4 -0.2z"/>
  <path d="M218.7 144 c-4.1 -2.5 -4.1 -2.6 -1.7 -7.4 2.4 -5 4.1 -5.6 7.9 -2.7 l2.3 1.8 -2 4.5 c-2.5 5.6 -3 6 -6.5 3.8z m2.2 -4.7 c1 -1.9 0.9 -2.3 -0.4 -2.3 -1 0 -1.5 0.9 -1.5 2.7 0 2.9 0.2 2.9 1.9 -0.4z"/>
  <path d="M88.1 142.9 c-1.7 -2.8 -6.2 -14.9 -5.6 -14.9 0.3 0 0.1 -0.8 -0.4 -1.7 -0.5 -1 -1.2 -3.6 -1.5 -5.8 -1 -6.4 -1.3 -6.9 -6.1 -9.4 -5.3 -2.8 -5.7 -4.1 -1.4 -4.1 5.1 0 9.9 3.3 9.9 6.8 0 1.1 1.1 5.9 2.5 10.6 1.4 4.7 2.5 9.1 2.5 9.7 0 0.6 0.7 1.7 1.5 2.5 1.5 1.6 2.1 8.4 0.7 8.4 -0.4 0 -1.3 -1 -2.1 -2.1z"/>
  <path d="M61 138 c-3.4 -4.4 -4.3 -7 -2.5 -7 1 0 1.2 -0.9 0.8 -3.7 -0.8 -5.1 -1.3 -5.4 -1.3 -1 0 3.9 -1.3 4.9 -2.6 2 -0.4 -1 -0.8 -2 -0.8 -2.3 -0.1 -0.3 -0.4 -0.9 -0.8 -1.5 -1.1 -1.9 -2.1 -9 -2.2 -16.1 0 -8.6 1 -10 7.4 -9.7 2.5 0 7.1 0.2 10.3 0.2 4.3 0.1 5.7 0.5 5.7 1.6 0 0.8 0.9 2 2 2.7 2.9 1.9 2.4 2.8 -1.5 2.8 -2.3 0 -3.5 -0.5 -3.5 -1.4 0 -1.9 -15 -3.3 -16.1 -1.4 -0.5 0.7 -0.8 4 -0.7 7.3 0.1 4.2 0.3 4.9 0.5 2.3 0.4 -3.9 3.1 -5.5 3.5 -2 0.4 5.3 0.6 6.9 1.1 8.7 0.7 3 5 11.8 6.5 13.3 1.8 1.9 1.5 3.2 -0.7 3.2 -1.4 0 -2.1 0.8 -2.3 2.6 l-0.3 2.7 -2.5 -3.3z"/>
  <path d="M29.3 134.3 c-1.3 -0.8 -2.3 -2.2 -2.3 -2.9 0 -0.8 -0.4 -1.4 -0.8 -1.4 -0.5 0 -1.6 -1.5 -2.5 -3.4 -1.5 -3.2 -1.5 -3.5 0.1 -4.8 0.9 -0.8 2.5 -1.8 3.6 -2.2 1.6 -0.6 1.8 -0.2 1.4 2.6 -0.3 1.8 -0.2 4.2 0.3 5.3 0.6 1.6 0.8 1.3 0.9 -1.5 l0.1 -3.5 3.9 4.5 3.9 4.5 -2.6 2.3 c-3 2.6 -3.1 2.6 -6 0.5z"/>
  <path d="M166 133.5 c0 -1.4 0.9 -5.8 2 -9.7 1.1 -4 2 -8.3 2 -9.5 0 -1.8 0.6 -2.3 2.6 -2.3 2.1 0 2.4 0.3 1.5 1.3 -0.6 0.8 -0.9 1.6 -0.6 1.8 0.6 0.7 -3.2 16.4 -4.5 19 -1.5 2.7 -3 2.4 -3 -0.6z"/>
  <path d="M185 135.4 c0 -1 4.3 -7.8 5.4 -8.6 0.6 -0.4 0.8 -0.8 0.4 -0.8 -0.3 0 0.2 -2.3 1.3 -5.1 1 -2.9 1.6 -5.6 1.3 -6 -0.8 -1.4 0.8 -5.9 2.1 -5.9 0.8 0 1.5 1.5 1.8 3.8 0.2 2 0.4 0.5 0.5 -3.5 l0.2 -7.3 -3.7 0.1 c-2.1 0.1 -4.9 0.5 -6.3 0.9 -2.4 0.8 -2.3 0.8 0.8 0.9 2.1 0.1 3.2 0.6 3.2 1.6 0 0.8 -0.6 1.5 -1.2 1.6 -2.9 0.1 -5.7 0.9 -9.9 2.8 l-4.4 2 -0.3 -2.1 c-0.2 -1.1 0.2 -2.5 1 -2.9 0.9 -0.6 0.7 -0.9 -0.9 -0.9 -4.9 0 -0.7 -3.3 7.2 -5.6 4.8 -1.4 6.6 -1.7 10.8 -2 4.3 -0.2 4.8 0 6 2.4 2.2 4.7 1 19.5 -2 26 -2 4.2 -3.3 4.1 -3.4 -0.5 -0.1 -2.7 -0.3 -3 -0.6 -1.3 -0.6 3.7 -2.4 8 -3.4 8 -0.5 0 -0.9 0.7 -0.9 1.5 0 0.9 -0.9 1.5 -2.5 1.5 -1.4 0 -2.5 -0.3 -2.5 -0.6z m0 -30.4 c0 -0.5 -0.9 -1 -2 -1 -1.1 0 -2 0.5 -2 1 0 0.6 0.9 1 2 1 1.1 0 2 -0.4 2 -1z"/>
  <path d="M62.8 107.2 c-3.4 -0.7 -2 -3.2 1.7 -3.2 2.8 0 3.5 0.4 3.5 1.9 0 1.9 -1 2.2 -5.2 1.3z"/>
  <path d="M75.7 98.3 c-1.2 -1.1 -0.8 -2.3 0.8 -2.3 0.8 0 1.5 0.7 1.5 1.5 0 1.6 -1.2 2 -2.3 0.8z"/>
  <path d="M75.2 92.3 c0.4 -2.4 4.8 -2.5 4.8 -0.1 0 1.3 -0.7 1.8 -2.6 1.8 -1.8 0 -2.5 -0.5 -2.2 -1.7z"/>
  <path d="M112 91.6 c0 -2 3.1 -2.5 15 -2.5 11.8 0 15 0.5 15 2.5 0 1.1 -2.9 1.4 -15 1.4 -12.1 0 -15 -0.3 -15 -1.4z"/>
  <path d="M89.8 77.9 l-3.3 -3 4 0.3 c3.5 0.3 4 0.6 4.3 3.1 0.4 3.5 -0.9 3.4 -5 -0.4z"/>
  <path d="M116 79 c0 -0.8 -0.7 -7.6 -1.5 -15 -0.8 -7.4 -1.5 -13.8 -1.5 -14.2 0 -0.5 -1.1 -0.8 -2.5 -0.8 -1.8 0 -2.5 -0.5 -2.5 -1.9 0 -1.6 0.9 -2 5.8 -2.4 3.1 -0.3 6.6 -0.5 7.7 -0.5 1.1 0 7.4 -0.7 14 -1.6 34.3 -4.7 60.9 -12.1 93.8 -26 3.6 -1.6 3.7 -1.6 3.7 0.4 0 2.3 -1.3 3 -18 9 -6.3 2.3 -12.8 4.7 -14.5 5.5 -1.6 0.7 -5.8 2.2 -9.2 3.2 l-6.3 1.8 0.7 3.5 c0.3 1.9 1.8 8.9 3.4 15.5 1.5 6.6 2.5 12.2 2.3 12.4 -0.2 0.2 -3.8 -1.1 -8 -3 l-7.7 -3.3 -5.8 6.3 c-3.1 3.5 -5.9 5.9 -6.1 5.4 -0.3 -0.4 -2 -7.3 -3.8 -15.3 -1.9 -8 -3.4 -14.6 -3.4 -14.7 -0.1 -0.1 -2.4 0.3 -5.1 0.8 -2.8 0.5 -6.4 1.1 -8.1 1.4 -2.6 0.4 -3 0.9 -2.7 2.8 0.7 4 3 28.2 2.7 28.5 -0.1 0.2 -3.4 -1.5 -7.4 -3.8 l-7.1 -4.3 -2.7 2.4 c-1.5 1.3 -4.4 3.9 -6.4 5.8 -2.4 2.2 -3.8 3 -3.8 2.1z m54 -15.3 c0 -1.8 0.5 -3.8 1.2 -4.5 1.4 -1.4 7.5 -1.6 8 -0.4 0.2 0.5 1.8 1.2 3.7 1.5 3.1 0.6 3.3 0.5 2.8 -1.5 -0.4 -1.2 -1.4 -6.4 -2.4 -11.5 -1 -5.1 -2.1 -9.3 -2.4 -9.3 -0.4 0 -5.5 1.1 -11.4 2.4 -10 2.3 -13.8 3.6 -10.4 3.6 1.1 0 2.3 3.4 4.3 11.5 2.3 9.7 3.1 11.5 4.7 11.5 1.5 0 1.9 -0.7 1.9 -3.3z"/>
  <path d="M74 73.1 c0 -2.1 0.5 -3.1 1.5 -3.1 0.8 0 1.5 -0.4 1.5 -1 0 -0.5 1.8 -1 4 -1 3.8 0 4 0.1 4 3.2 0 2.5 -0.3 2.9 -1.2 2 -1.7 -1.7 -3.6 -1.5 -6.9 0.9 l-2.9 2 0 -3z"/>
  <path d="M92 62 c0 -5.5 0.3 -7 1.5 -7 0.8 0 1.7 1.4 2.1 3.5 0.9 4.7 -0.3 10.5 -2.1 10.5 -1.2 0 -1.5 -1.5 -1.5 -7z"/>
  <path d="M68 50.6 c0 -1.5 -4.1 -2.4 -12.5 -2.7 -5.8 -0.3 -8.5 -1.4 -8.5 -3.5 0 -1.6 2.8 -1.6 18.3 0.2 4.6 0.6 4.7 0.7 4.7 4 0 1.9 -0.4 3.4 -1 3.4 -0.5 0 -1 -0.6 -1 -1.4z"/>
  <path d="M79 47 c0 -1.9 0.7 -2 11 -2 10.3 0 11 0.1 11 2 0 1.9 -0.7 2 -11 2 -10.3 0 -11 -0.1 -11 -2z"/>
  <path d="M34.5 44.9 c-2.7 -0.5 -7.2 -1 -10 -1.3 -7 -0.7 -23.5 -3.9 -23.5 -4.5 0 -0.3 0.4 -1.2 0.9 -2 0.7 -1.1 2.6 -1 11.7 0.8 6 1.1 14.3 2.5 18.4 3.1 13.3 1.9 14 2 14 3.5 0 1.7 -3.4 1.8 -11.5 0.4z"/>
 </g>
 <g fill="#d99f1e">
  <path d="M103.5 229.7 c-0.4 -1.3 -0.5 -4.1 -0.3 -6.3 0.2 -3.2 0.7 -4 2.6 -4.2 2.2 -0.3 2.3 -0.2 1.7 4.2 l-0.7 4.6 15.1 0 c14.7 0 15.1 -0.1 14.1 -1.9 -0.5 -1.1 -1 -3.1 -1 -4.5 0 -2.5 0.3 -2.6 5.4 -2.6 l5.5 0 -1.7 -3.9 c-1.1 -2.5 -1.9 -3.5 -2.2 -2.5 -0.5 1.2 -4 1.4 -22.2 1.2 -15 -0.2 -22.1 -0.7 -22.9 -1.5 -1.6 -1.6 -0.3 -6 2 -6.8 1.2 -0.3 2.1 -1.7 2.3 -3.2 0.2 -2 1.6 -3.4 5.1 -5.5 l4.7 -2.7 0 3 c0 2.5 -0.5 3 -3 3.6 -2.6 0.5 -3 1 -3 4 0 2.6 -0.5 3.6 -2.2 4.3 -1.5 0.6 4 0.9 15.9 0.9 l18.2 0.1 -0.3 -7.7 c-0.2 -4.3 -1.1 -9.5 -2 -11.7 -0.9 -2.3 -1.6 -6.6 -1.6 -10.7 0 -6.2 0.2 -6.9 2 -6.9 1.6 0 2 -0.7 2 -3 0 -2.3 0.6 -3.3 2.7 -4.3 1.5 -0.6 4.8 -3.2 7.3 -5.8 3 -3 6 -4.9 9 -5.8 l4.5 -1.2 -0.4 -4.5 c-0.2 -3.4 0.5 -6.3 2.8 -11.7 3 -7 7.1 -21.2 7.1 -24.8 0 -1 0.8 -2.3 1.8 -2.8 0.9 -0.6 1.1 -1.1 0.5 -1.1 -1.5 0 -1.8 -7 -0.4 -7 0.5 0 1.1 -1.6 1.3 -3.5 0.4 -3.1 0.1 -3.5 -1.9 -3.5 -1.7 0 -2.3 -0.6 -2.3 -2.1 0 -1.9 0.4 -2 4.3 -1.5 2.3 0.3 4.3 0.5 4.5 0.5 0.1 0.1 0.2 1.7 0.2 3.7 0 2.7 -0.5 3.7 -2 4.1 -1.3 0.3 -2 1.4 -2 2.9 0 2.8 -0.2 2.8 4.4 0.9 3.4 -1.4 3.6 -1.4 3.6 0.4 0 1.7 0.4 1.8 3.8 1 2 -0.5 5.2 -0.9 7 -0.9 2.5 0 3.2 -0.4 3.2 -1.9 0 -2.7 1.5 -3.4 3.4 -1.5 2.3 2.2 2 3.4 -0.9 3.4 -2.2 0 -2.5 0.4 -2.5 3.5 0 1.9 -0.4 3.5 -1 3.5 -0.5 0 -1 -0.8 -1 -1.9 0 -1.7 -0.5 -1.8 -4.7 -1 -2.7 0.5 -7.3 2.1 -10.3 3.7 -5.4 2.7 -5.5 2.8 -6.3 8 -0.9 6.8 -5.1 19.4 -8.3 25.1 -1.3 2.4 -2.3 4.5 -2.2 4.7 0.2 0.1 2.7 -0.8 5.7 -2 8.2 -3.5 16.2 -9.9 20.1 -16.1 3.3 -5.2 5 -6.7 5 -4.5 0 0.6 0.4 1 0.8 1 0.5 0 1.5 -2.9 2.2 -6.5 1.1 -5.3 1.7 -6.5 3.3 -6.5 1.7 0 1.8 0.5 1.2 4.3 -1.6 9.3 -7.5 20 -14.5 25.9 -5.5 4.8 -15.8 10.1 -24.5 12.7 -5.2 1.5 -8 3 -10.5 5.6 -1.9 2 -5.6 5 -8.2 6.7 -7 4.4 -8.3 10.8 -4 19.3 0.9 1.8 1.5 5.7 1.5 10 0 6.6 0 6.7 0.6 2 0.4 -2.8 1 -4.3 1.3 -3.5 1.1 2.6 2.8 12 2.8 15.5 0 1.9 0.5 3.5 1.1 3.5 0.7 0 0.9 0.9 0.5 2.3 -0.4 1.6 0.3 3.6 2 6.1 4.8 7.1 4.8 7.1 -21.3 7.4 l-23.3 0.2 -0.5 -2.3z"/>
  <path d="M64.3 210.9 l-3.2 -2 2.7 -3.9 c1.5 -2.2 3 -3.9 3.5 -4 0.4 0 0.8 1.7 0.8 3.8 0.1 3.4 0.2 3.3 1.1 -1.5 1 -5.7 1.4 -6 4.3 -3.9 1.8 1.3 1.8 1.5 -0.7 5.7 -4.9 8.2 -4.8 8.1 -8.5 5.8z"/>
  <path d="M114.6 188.3 c1.3 -2.5 2.4 -5.2 2.4 -6 0 -0.7 0.7 -1.3 1.5 -1.3 1.8 0 2 4.3 0.4 8.9 -0.9 2.5 -1.7 3.1 -3.9 3.1 l-2.7 0 2.3 -4.7z"/>
  <path d="M116.4 175.8 c-0.7 -2.2 -2.6 -4.3 -6.3 -6.9 -2.9 -2 -6.9 -5.2 -8.9 -7.2 -2.4 -2.2 -5.5 -3.9 -8.7 -4.6 -7.2 -1.8 -18.2 -7.2 -24 -11.8 -5.9 -4.6 -11.7 -12.4 -9.7 -13 0.6 -0.3 1.2 -2 1.2 -3.9 0 -4.3 1.5 -4.4 3.6 -0.1 0.9 1.7 2.8 4.7 4.2 6.5 1.5 2 1.9 3.2 1.2 3.2 -0.9 0 -0.8 0.5 0.3 1.8 1 1 1.7 2.4 1.7 3 0 0.7 0.9 1.2 2 1.2 1.1 0 2 0.4 2 0.9 0 1.5 3.9 2 4.2 0.6 0.2 -1 1.6 -0.8 5.8 1 3 1.3 5.6 2.2 5.8 2.1 0.1 -0.2 -1.3 -3.6 -3.2 -7.7 -2 -4.1 -4.5 -11.4 -5.7 -16.4 -1.2 -4.9 -2.3 -9.6 -2.5 -10.3 -0.5 -1.6 -9.4 -5.8 -15.3 -7.1 -3.9 -0.8 -4.4 -0.7 -4.8 1 -0.9 3.4 -3.3 2.2 -3.3 -1.6 0 -3.2 0.2 -3.5 3 -3.5 2.3 0 3 -0.4 3 -2 0 -2.1 1 -2.4 4.8 -1.4 2.6 0.7 3 3.4 0.5 3.5 -1.2 0.1 -1 0.4 0.7 0.9 4.5 1.4 5.3 1.2 4.8 -1.5 -0.4 -1.7 -0.1 -2.5 0.8 -2.5 0.8 0 1.4 0.6 1.4 1.4 0 1.2 2 2.6 3.6 2.6 0.2 0 0.4 -1.1 0.4 -2.4 0 -1.5 -0.7 -2.6 -2 -2.9 -1.5 -0.4 -2 -1.4 -2 -4 0 -3.1 0.3 -3.5 3.1 -4.1 5.4 -1.1 6.9 -0.8 6.9 1.4 0 1.5 -0.7 2 -2.9 2 -2.5 0 -2.8 0.3 -2.3 2.5 0.2 1.4 1.1 2.5 1.8 2.5 1.9 0 1.8 6.4 -0.1 8.3 -1.2 1.2 -1.2 1.6 -0.1 2 1.3 0.5 3.6 9.8 3.6 14.8 0 1.5 0.3 2.9 0.8 3.1 1.1 0.5 5.2 11.1 5.2 13.6 0 1.2 0.6 2.2 1.4 2.2 3 0 3.8 8.6 0.9 9.2 -1 0.2 0.6 1 3.5 1.8 3.9 1 6.3 2.5 9.1 5.5 2.1 2.2 5.5 5 7.7 6.2 4.5 2.5 6.4 5.4 6.4 10.1 0 4.2 -2.4 4.3 -3.6 0z"/>
  <path d="M29 127.5 c0 -0.9 -1.2 -1.8 -3 -2.1 -3.8 -0.8 -3.8 -2.9 -0.1 -4.8 2.8 -1.5 2.9 -1.5 5.9 3.4 l3.1 5 -2.9 0 c-2 0 -3 -0.5 -3 -1.5z"/>
  <path d="M54.2 124.3 c-0.6 -1 -1.3 -3.7 -1.7 -6 -0.6 -3.8 -0.5 -4.3 1.3 -4.3 1.9 0 3.2 3.7 3.2 9.8 0 2.6 -1.6 2.9 -2.8 0.5z"/>
  <path d="M87.3 75.9 l-6.2 -5 -6.6 4.6 c-3.6 2.6 -6.9 4.5 -7.2 4.2 -1 -1.1 0.7 -5.7 2.2 -5.7 0.8 0 1.5 -0.4 1.5 -1 0 -0.5 0.9 -1 2 -1 1.1 0 2 -0.7 2 -1.5 0 -1.7 1.5 -1.8 8.4 -0.9 2.9 0.4 4.6 1.2 4.6 2 0 0.8 0.9 1.4 2 1.4 1.1 0 2 0.5 2 1 0 0.6 0.7 1 1.5 1 1 0 1.5 1 1.5 3 0 1.7 -0.3 3 -0.7 2.9 -0.5 0 -3.6 -2.3 -7 -5z"/>
  <path d="M67 62.8 c0 -5.7 0.9 -8.8 2.6 -8.8 1.1 0 1.4 1.6 1.4 6.5 0 5.8 -0.2 6.5 -2 6.5 -1.7 0 -2 -0.7 -2 -4.2z"/>
  <path d="M92 53 l0 -5 3.8 0.1 c2 0.1 2.9 0.3 2 0.6 -1 0.2 -1.8 1.4 -1.8 2.6 0 3.8 -1.2 6.7 -2.6 6.7 -1 0 -1.4 -1.4 -1.4 -5z"/>
  <path d="M68 50.4 c0 -0.9 -0.9 -1.8 -2 -2.1 -3.5 -0.9 -2.4 -3.3 1.5 -3.3 3.3 0 3.5 0.2 3.5 3.5 0 2.4 -0.5 3.5 -1.5 3.5 -0.8 0 -1.5 -0.7 -1.5 -1.6z"/>
 </g>
 <g fill="#ee9e10">
  <path d="M142.7 211.1 c-1.9 -6 -2.3 -15.6 -0.7 -14.6 0.6 0.3 1 2.4 1 4.6 0 2.2 0.5 4.9 1.1 6 0.5 1.1 0.9 3.7 0.7 5.7 l-0.3 3.7 -1.8 -5.4z"/>
  <path d="M133.6 209.9 c-1 -5.3 -0.7 -9.7 0.9 -11.3 0.8 -0.8 1.5 -2.4 1.5 -3.5 0 -1.4 0.6 -2.1 1.9 -2.1 1.8 0 2 0.8 2 7.5 0 4.1 0.5 8.4 1.1 9.4 1.5 2.9 1.3 3.1 -2.9 3.1 -3.5 0 -3.9 -0.3 -4.5 -3.1z"/>
  <path d="M134 187.4 c0 -4.4 1.8 -4.2 3.7 0.4 1.3 3.1 1.2 3.2 -1.2 3.2 -2.2 0 -2.5 -0.4 -2.5 -3.6z"/>
  <path d="M120.4 181.3 c-2.8 -0.4 -3.2 -0.8 -3.7 -4.4 -0.3 -2.2 -1.4 -5 -2.4 -6.1 -1.8 -2.1 -1.8 -2.1 3.2 -1.3 7.7 1.2 13 0.9 16.5 -0.9 3.6 -1.7 9 -2.2 9 -0.7 0 0.5 -0.7 1.1 -1.5 1.5 -2 0.7 -5.5 6.6 -5.5 9.2 0 1.2 -0.7 2.5 -1.6 2.8 -1.6 0.6 -8.6 0.6 -14 -0.1z"/>
  <path d="M146 163.6 c0 -2.9 4 -7.6 6.5 -7.6 0.8 0 1.5 -0.7 1.5 -1.6 0 -2.6 4 -7.4 6.1 -7.4 1 0 1.9 0.5 1.9 1 0 0.6 1.1 0.8 2.5 0.4 2.3 -0.6 2.5 -0.3 2.5 2.8 0 3.4 -0.2 3.5 -6.2 5.4 -3.5 1 -7.4 3 -8.8 4.4 -1.4 1.4 -3.3 3.1 -4.2 3.9 -1.6 1.2 -1.8 1.1 -1.8 -1.3z"/>
  <path d="M94.5 157.3 c-6.4 -1.9 -7.5 -2.9 -7.5 -6.4 0 -2.7 0.2 -2.9 2.6 -2.3 1.9 0.5 2.5 0.4 2 -0.5 -0.4 -0.6 -0.1 -1.1 0.8 -1.1 3.1 0 8.6 7.9 7.4 10.8 -0.1 0.5 -2.5 0.3 -5.3 -0.5z"/>
  <path d="M171 110.1 c0 -2.6 -0.5 -4.1 -1.6 -4.5 -0.9 -0.3 -21.5 -0.6 -45.9 -0.6 l-44.2 0 -0.1 -2.6 c0 -1.5 -0.7 -3.1 -1.6 -3.6 -0.9 -0.5 -1.6 -1.3 -1.6 -1.8 0 -0.6 19.3 -1 50.5 -1 34 0 50.5 0.3 50.5 1 0 0.6 -0.7 1.3 -1.5 1.6 -0.9 0.4 -1.5 1.9 -1.5 3.5 0 2.6 0.2 2.8 1.9 1.9 2.9 -1.5 3.1 -1.3 3.1 2.4 0 2.8 -0.6 3.8 -3.6 5.5 -1.9 1.2 -3.7 2.1 -4 2.1 -0.2 0 -0.4 -1.8 -0.4 -3.9z"/>
 </g>
 <g fill="#f6ad16">
  <path d="M136.6 228.8 c-0.3 -1.3 -0.6 -3.6 -0.6 -5.1 0 -4.2 2.2 -2.8 4.1 2.6 l1.7 4.7 -2.3 0 c-1.5 0 -2.5 -0.7 -2.9 -2.2z"/>
  <path d="M97.2 211.8 c-1.9 -1.9 -1.4 -2.8 1.8 -2.8 2.3 0 3 0.4 3 2 0 2.3 -2.9 2.7 -4.8 0.8z"/>
  <path d="M133 205.6 c0 -5.2 -0.4 -7.7 -1.4 -8.6 -0.8 -0.6 -2 -2.8 -2.7 -4.8 -2.6 -8.4 -3.8 -10 -8 -10.7 -3.3 -0.6 -3.9 -1.1 -3.9 -3.1 0 -2 0.3 -2.3 1.8 -1.6 3 1.6 10.6 2.3 14 1.3 l3.2 -1 0 3.8 c0 2 0.9 5.4 2 7.6 1.6 3.1 1.9 5 1.4 8.7 -0.4 2.6 -1 4.5 -1.4 4.3 -0.8 -0.5 -2 1.8 -2 3.6 0 1.4 2.8 1.1 3.3 -0.3 0.3 -0.7 0.6 -0.1 0.6 1.5 0.1 1.8 -0.4 2.7 -1.5 2.7 -1.1 0 -1.5 0.6 -1.1 2 0.4 1.6 0 2 -1.9 2 -2.3 0 -2.4 -0.3 -2.4 -7.4z"/>
  <path d="M141.6 207.9 c-0.9 -4.5 -0.7 -12.1 0.2 -11.5 0.8 0.5 1.6 14.6 0.9 14.6 -0.3 0 -0.7 -1.4 -1.1 -3.1z"/>
  <path d="M118.8 173.4 c-1 -0.3 -1.8 -1.2 -1.8 -2 0 -1 1.3 -1.4 4.4 -1.4 4.2 0 4.8 -0.4 8.8 -5.1 2.4 -2.8 7.3 -8.6 11 -13 3.7 -4.3 7.7 -9.6 9 -11.9 1.9 -3.4 2.8 -4 5.6 -4 3 0 3.2 0.2 3.2 3.5 0 3.1 0.3 3.5 2.6 3.5 1.9 0 2.5 0.4 2 1.5 -0.3 0.8 -0.9 2.3 -1.3 3.2 -0.5 1.2 -0.2 1.5 0.8 1.1 5.7 -2.2 5.9 -2.1 5.9 1.5 0 3.3 -0.3 3.6 -4.5 5.1 l-4.6 1.5 2.2 -3 c1.2 -1.7 1.8 -3.3 1.5 -3.7 -1.1 -1.1 -3.9 1.2 -5.5 4.6 -0.9 1.7 -2 3.2 -2.6 3.2 -0.5 0 -3.2 2.2 -6 4.9 -7.2 7 -14.1 10.3 -22.3 10.7 -3.7 0.1 -7.5 0.1 -8.4 -0.2z"/>
  <path d="M96.6 156.3 c-2.6 -2.8 -3.1 -3 -4.1 -1.6 -1.1 1.5 -1.7 1.5 -6.5 -0.3 -5.9 -2.1 -7.7 -4.4 -3.6 -4.4 1.7 0 2.6 -0.5 2.6 -1.6 0 -1.1 0.5 -1.4 1.8 -0.9 0.9 0.4 2.5 1 3.6 1.3 1.6 0.4 1.7 0.2 0.7 -1.7 -0.7 -1.1 -0.8 -2.1 -0.4 -2.1 1.3 0 7.3 5.5 7.3 6.7 0 0.6 0.5 1.3 1.1 1.5 0.6 0.2 0.9 1.7 0.7 3.3 l-0.3 3 -2.9 -3.2z"/>
  <path d="M80 114 c0 -0.6 -1.6 -1.8 -3.5 -2.7 -3.1 -1.5 -3.5 -2.1 -3.5 -5.3 0 -4.7 0.7 -5.3 3.2 -2.8 1.9 1.9 2.2 1.9 3 0.4 0.7 -1.2 2.4 -1.6 6.8 -1.6 5.3 0 6 0.2 6 2 0 1.7 -0.7 2 -5 2 l-5 0 0 4.5 c0 2.5 -0.4 4.5 -1 4.5 -0.5 0 -1 -0.5 -1 -1z"/>
  <path d="M171 110.5 l0 -4.5 -5 0 c-4.3 0 -5 -0.3 -5 -2 0 -1.8 0.7 -2 5.5 -2 3.3 0 5.9 0.5 6.7 1.4 1.1 1.2 1.7 1.2 4.1 0 l2.7 -1.5 0 3.9 c0 3.4 -0.4 4 -3.5 5.5 -1.9 0.9 -3.5 2.1 -3.5 2.7 0 0.5 -0.4 1 -1 1 -0.5 0 -1 -2 -1 -4.5z m4.7 -2.5 c-0.2 -2.9 -1.7 -2.4 -1.7 0.6 0 1.4 0.4 2.3 0.9 1.9 0.6 -0.3 0.9 -1.4 0.8 -2.5z"/>
  <path d="M103 104 c0 -1.9 0.7 -2 25.5 -2 24.8 0 25.5 0.1 25.5 2 0 1.9 -0.7 2 -25.5 2 -24.8 0 -25.5 -0.1 -25.5 -2z"/>
  <path d="M78.8 99.3 c-3.6 -0.9 -2 -3.3 2.2 -3.3 2.9 0 4 0.4 4 1.5 0 0.8 -0.4 1.5 -0.9 1.5 -0.5 0 -1.5 0.2 -2.3 0.4 -0.7 0.2 -2.1 0.2 -3 -0.1z"/>
  <path d="M174 96.5 c0 -1.8 0.5 -2.5 2 -2.5 2.4 0 2.8 3.5 0.4 4.4 -2.3 0.9 -2.4 0.8 -2.4 -1.9z"/>
 </g>
 <g fill="#fab618">
  <path d="M136 228.4 c-0.6 -1.4 -1 -4.1 -1 -6 0 -2.8 0.4 -3.4 2.1 -3.4 1.1 0 1.8 0.4 1.5 0.9 -0.6 0.9 0.9 6.3 2.5 9.4 0.8 1.4 0.5 1.7 -1.6 1.7 -1.8 0 -2.8 -0.7 -3.5 -2.6z"/>
  <path d="M97.8 211.9 c-3.8 -2.2 -1.5 -2.9 9.2 -2.9 10.3 0 11 0.1 11 2 0 1.9 -0.7 2 -9.2 2 -5.1 0 -10.1 -0.5 -11 -1.1z"/>
  <path d="M121 211 c0 -1.6 0.7 -2 3.5 -2 2.8 0 3.5 0.4 3.5 2 0 1.6 -0.7 2 -3.5 2 -2.8 0 -3.5 -0.4 -3.5 -2z"/>
  <path d="M130 211.1 c0 -1.1 0.6 -2.2 1.3 -2.4 0.7 -0.3 0.5 -0.6 -0.5 -0.6 -2.7 -0.1 -2.5 -6.7 0.2 -7.6 2 -0.6 2 -0.7 0.1 -3.1 -1 -1.3 -2.7 -5.1 -3.7 -8.4 -1.7 -5.9 -1.9 -6.1 -6.1 -7.2 -3.2 -0.8 -4.3 -1.5 -4.3 -3 0 -1.4 0.5 -1.8 1.8 -1.4 0.9 0.3 3.3 0.8 5.3 1.1 3.9 0.7 4.8 1.9 7.4 9.3 0.8 2.4 2.8 6 4.4 8 2.5 3.2 2.7 3.9 1.4 5.1 -0.8 0.7 -1.3 2.7 -1.2 4.5 0.4 6.8 0.1 7.6 -3.1 7.6 -2.3 0 -3 -0.5 -3 -1.9z"/>
  <path d="M141.7 208 c-0.4 -1.4 -0.6 -4.7 -0.6 -7.5 l0.1 -5 0.9 5.5 c1.1 6.4 0.8 11.2 -0.4 7z"/>
  <path d="M135.3 181.5 c0 -2.2 0.2 -3 0.4 -1.7 0.2 1.2 0.2 3 0 4 -0.3 0.9 -0.5 -0.1 -0.4 -2.3z"/>
  <path d="M119.5 173.1 c-3.4 -0.9 -7.5 -3.2 -7.5 -4.3 0 -1.2 5.2 -1 8.9 0.3 2.9 1 3.5 0.8 7.5 -2.7 2.4 -2.2 4.5 -4.4 4.5 -5 0.2 -2.1 8.3 -10.4 10.2 -10.4 1.4 0 1.9 -0.7 1.9 -2.5 0 -1.4 0.7 -2.8 1.5 -3.1 0.8 -0.4 1.5 -1.2 1.5 -1.9 0 -0.7 0.3 -1.5 0.8 -1.7 2.4 -1 10.7 -22.9 11.8 -30.9 l0.7 -4.9 -7.7 0 c-5.8 0 -7.6 -0.3 -7.6 -1.4 0 -1.9 3 -2.5 12.1 -2.3 5.9 0.2 8.2 0.6 8.9 1.7 0.7 1 1 1.1 1 0.3 0 -0.8 1.3 -1.3 3.1 -1.3 l3.2 0 -0.6 6.8 c-1.2 13.8 -9.9 39 -13 37.9 -0.7 -0.2 -2 0.2 -2.9 1.1 -1.6 1.4 -1.8 1.3 -1.8 -0.6 0 -1.2 -0.5 -2.2 -1.1 -2.2 -1.1 0 -1 -1.2 0.6 -5.5 0.4 -1.1 -0.2 -0.5 -1.4 1.3 -1.2 1.8 -1.9 3.8 -1.5 4.3 0.3 0.5 0.2 0.8 -0.3 0.7 -0.5 -0.2 -4.1 3.5 -8.1 8.2 -16.4 19.2 -16.2 19 -19 18.9 -1.5 -0.1 -4 -0.4 -5.7 -0.8z m50.5 -63.1 c0 -1.6 -0.4 -3 -1 -3 -0.5 0 -1 1.4 -1 3 0 1.7 0.5 3 1 3 0.6 0 1 -1.3 1 -3z"/>
  <path d="M107 166 l-3.5 -2.9 3.8 -0.1 c3.5 0 3.7 0.2 3.7 3 0 1.7 -0.1 3 -0.3 3 -0.1 0 -1.8 -1.3 -3.7 -3z"/>
  <path d="M152.2 159.5 c1.5 -1.6 2.9 -2.7 3.1 -2.4 0.3 0.2 -1 1.5 -2.7 2.8 l-3.1 2.4 2.7 -2.8z"/>
  <path d="M98 157.5 c-1.4 -1.5 -3.7 -4.1 -5.2 -5.6 -1.4 -1.6 -2.2 -2.9 -1.8 -2.9 0.5 0 0.7 -0.7 0.3 -1.6 -0.4 -1.2 0 -1.5 1.8 -1.2 1.6 0.2 2.5 1.1 2.7 2.6 0.2 1.2 1 2.2 1.7 2.2 2 0 3.7 3.6 3.3 6.7 l-0.3 2.6 -2.5 -2.8z"/>
  <path d="M86.3 154.5 c-3.1 -1.3 -4.5 -3.5 -2.3 -3.5 0.6 0 1 -0.9 1 -2 0 -4.1 2.9 -1.8 4.8 3.8 1.2 3.6 1 3.7 -3.5 1.7z"/>
  <path d="M163.9 153.9 c1.2 -1.3 2 -3.1 1.8 -4 -0.3 -1.1 0.4 -2.1 2 -2.8 3.2 -1.5 3.3 -1.4 3.3 0.9 0 1.1 0.5 2 1 2 0.6 0 1 0.5 1 1.1 0 1 -3.7 2.8 -8.9 4.4 l-2.4 0.7 2.2 -2.3z"/>
  <path d="M156.9 153.5 c1.7 -3.3 3.1 -5.1 3.1 -4 0 0.6 -1 2.1 -2.1 3.5 -1.3 1.7 -1.7 1.8 -1 0.5z"/>
  <path d="M79.4 108.1 l0.1 -5.3 11.4 -0.5 c13 -0.5 18.1 0.1 18.1 2.2 0 1.3 -2.5 1.5 -14.4 1.5 l-14.5 0 -0.4 3.8 c-0.3 2.3 -0.4 1.8 -0.3 -1.7z"/>
  <path d="M73.6 109.4 c-2 -2 -2.2 -8.4 -0.2 -8.4 1.7 0 2.8 2.5 3 6.8 0.1 3.6 -0.5 3.9 -2.8 1.6z"/>
  <path d="M176.6 107.4 c0.1 -3.2 1.5 -5.3 3.7 -5.4 0.4 0 0.7 1.6 0.7 3.5 0 2.4 -0.6 3.7 -1.9 4.5 -2.7 1.4 -2.6 1.4 -2.5 -2.6z"/>
  <path d="M114 104.5 c0 -0.8 0.6 -1.6 1.3 -1.6 9 -0.8 11.7 -0.4 11.7 1.7 0 1.1 -1.6 1.4 -6.5 1.4 -5.1 0 -6.5 -0.3 -6.5 -1.5z"/>
  <path d="M162 97 c0 -1.8 0.7 -2 6 -2 5.3 0 6 0.2 6 2 0 1.8 -0.7 2 -6 2 -5.3 0 -6 -0.2 -6 -2z"/>
  <path d="M75.2 93.8 c0.5 -3.4 3.8 -3.7 3.8 -0.4 0 2 -0.5 2.6 -2.1 2.6 -1.5 0 -2 -0.5 -1.7 -2.2z"/>
  <path d="M92 50.5 c0 -3.3 0.2 -3.5 3.5 -3.5 1.9 0 3.5 0.5 3.5 1 0 0.6 -0.7 1 -1.5 1 -0.8 0 -1.7 1.1 -2.1 2.5 -1 3.9 -3.4 3.1 -3.4 -1z"/>
 </g>
 <g fill="#fec520">
  <path d="M104.2 225.3 l0.3 -5.8 16.8 -0.3 c15.8 -0.2 16.7 -0.1 16.7 1.7 0 1 0.7 3.7 1.5 6 l1.4 4.1 -18.5 0 -18.5 0 0.3 -5.7z"/>
  <path d="M106 212 c-8.6 -0.5 -9.5 -0.7 -9.5 -2.5 0 -1.2 1.1 -2.5 2.8 -3.3 1.9 -0.9 2.6 -1.9 2.3 -2.9 -0.8 -1.9 1.1 -5.3 2.9 -5.3 2.3 0 9.6 -7.1 11.2 -10.7 0.7 -1.8 1.3 -4.8 1.3 -6.6 l0 -3.5 4.8 1 c6.1 1.3 6.7 1.9 8.8 8.5 1 3.1 3 7.1 4.5 8.7 2.1 2.5 2.4 3.5 1.7 5.2 -0.6 1.2 -2 2.7 -3.2 3.2 l-2.1 1.1 2.3 0 c1.8 0.1 2.2 0.7 2.2 3.1 0 1.8 -0.7 3.3 -1.8 3.9 -1.9 1 -12 1.1 -28.2 0.1z"/>
  <path d="M67 209.1 c0 -2.1 -0.5 -3.1 -1.5 -3.1 -1.3 0 -1.2 -0.7 0.6 -4.2 1.2 -2.4 2.3 -4.5 2.5 -4.6 0.1 -0.2 1.6 0.4 3.3 1.4 l3 1.7 -2.4 4.7 c-1.3 2.5 -3.1 5.2 -3.9 5.9 -1.4 1.2 -1.6 1 -1.6 -1.8z"/>
  <path d="M141.7 208.1 c-0.4 -1.9 -0.5 -3.6 -0.2 -3.9 1 -1.1 1.6 0.7 1.3 4 l-0.3 3.3 -0.8 -3.4z"/>
  <path d="M118.3 172.1 c-13.3 -4.6 -25.4 -17.9 -32.6 -36.1 -3 -7.6 -6.7 -23.7 -6.7 -29.2 l0 -3.8 6.9 0 6.8 0 0.7 7 c0.9 8.6 2.9 15.7 6.6 23 5 9.7 6 10.4 4.3 2.9 -0.7 -3.5 -1.6 -12.4 -2 -19.6 l-0.6 -13.3 25.4 -0.1 c34.1 -0.2 39.8 -0.1 43.5 0.5 3 0.6 3.1 0.7 2.8 5.9 -0.6 8.5 -5.7 29.7 -7 28.4 -0.3 -0.2 0.3 -2.6 1.1 -5.2 0.9 -2.6 1.7 -5.9 1.7 -7.4 0.1 -3.7 -2.4 -9.2 -3.9 -8.7 -0.6 0.3 -1.4 0 -1.7 -0.7 -0.2 -0.7 -0.5 -0.3 -0.5 0.9 -0.2 3.5 -4.8 15.9 -8.6 23.2 -4.8 9.3 -26.5 34.2 -29.6 34.2 -0.8 -0.1 -3.7 -0.9 -6.6 -1.9z m40.2 -54 c0.8 -3.2 1.5 -7.3 1.5 -9 0 -2.6 -0.4 -3.1 -2.5 -3.1 -1.9 0 -2.5 0.5 -2.5 2.3 0 2.9 -1.9 20.1 -2.5 23.5 -0.9 4.6 4.3 -7.3 6 -13.7z"/>
  <path d="M81.9 152.6 c-8.1 -3.3 -11.9 -5.9 -17.6 -11.9 -4.8 -5.1 -8.2 -10.4 -9.7 -15.4 -0.7 -2.1 -0.4 -2.3 3.2 -2.3 3.5 0 4.1 0.3 4.6 2.7 1.8 6.9 9.1 14.2 19.6 19.5 4.4 2.2 6.1 3.6 6.9 6 0.6 1.7 1.1 3.3 1.1 3.4 0 0.9 -2.9 0.2 -8.1 -2z"/>
  <path d="M167.5 150.5 c0 -2.8 0.5 -3.7 2.5 -4.5 8.5 -3.5 21 -16.2 21 -21.3 0 -1 1.1 -2.2 2.4 -2.7 1.8 -0.6 2.6 -1.9 3.1 -4.9 0.5 -3.1 1.1 -4.1 2.6 -4.1 1 0 1.9 0.6 1.9 1.3 0 3.1 -3.3 13.5 -5.7 17.9 -4.6 8.4 -16.6 18.3 -25.8 21.2 -1.7 0.5 -2 0.1 -2 -2.9z"/>
  <path d="M30 134.5 c-1 -1.2 -1 -1.9 -0.2 -2.7 1.7 -1.7 1.5 -3.8 -0.3 -3.8 -0.9 0 -1.5 -0.9 -1.5 -2.2 0 -1.7 -0.3 -2 -0.9 -0.9 -1.1 1.7 -4.1 0.8 -4.1 -1.2 0 -0.8 1.1 -1.9 2.5 -2.5 3.4 -1.5 4.5 -1.5 4.5 0.1 0 0.7 1.6 3.2 3.6 5.6 l3.6 4.2 -2.3 2.5 c-2.6 2.8 -3.2 2.9 -4.9 0.9z"/>
  <path d="M67.8 108.1 c-9.5 -3.2 -10.8 -5.7 -2.4 -4.7 4.8 0.5 5.4 0.4 5.9 -1.4 0.3 -1.1 1.2 -2 2.1 -2 0.9 0 1.6 0.1 1.6 0.3 0 0.1 0.3 2.6 0.6 5.5 0.4 2.8 0.5 5.1 0.3 5 -0.2 0 -3.9 -1.3 -8.1 -2.7z"/>
  <path d="M177.2 107.2 c0.3 -3.5 1.3 -5.1 3.1 -5.2 0.4 0 0.7 0.7 0.7 1.5 0 0.8 0.9 1.5 2 1.5 1.1 0 2 -0.4 2 -1 0 -0.5 2 -1 4.5 -1 6.4 0 6.1 2.5 -0.5 3.9 -2.8 0.6 -6.6 1.8 -8.6 2.6 l-3.6 1.5 0.4 -3.8z"/>
  <path d="M94 104.6 c0 -1.6 2.5 -2.4 5.3 -1.8 3.2 0.8 1.9 3.2 -1.8 3.2 -2.4 0 -3.5 -0.5 -3.5 -1.4z"/>
  <path d="M76.2 97.8 c-1.3 -1.3 -1.5 -3.7 -0.4 -5.4 0.4 -0.7 3.3 -1.5 6.5 -1.9 5.7 -0.7 5.7 -0.7 5.7 1.9 l0 2.6 37 0 37 0 0 -2.5 c0 -2.3 0.3 -2.5 4.8 -2.4 7.9 0.2 10.7 1.1 11 3.7 0.7 5.1 1.6 5 -51.1 5.1 -38 0.2 -49.5 -0.1 -50.5 -1.1z"/>
  <path d="M67 77.6 c0 -2.1 0.5 -2.6 2.5 -2.6 1.8 0 2.5 -0.5 2.5 -2 0 -1.7 0.7 -2 3.8 -2 l3.7 0.1 -3.2 2.7 c-1.7 1.5 -4.5 3.5 -6.2 4.5 l-3.1 1.8 0 -2.5z"/>
  <path d="M91.7 79.3 c-0.4 -0.3 -0.7 -2.8 -0.7 -5.5 0 -4.1 0.3 -4.8 2 -4.8 1.7 0 2 0.7 2 3.9 0 5.8 -1.3 8.4 -3.3 6.4z"/>
  <path d="M72.3 53.3 c-3.8 -0.4 -4.3 -0.7 -4.3 -2.9 0 -1.5 -0.6 -2.4 -1.5 -2.4 -0.8 0 -1.5 -0.4 -1.5 -1 0 -0.6 6.3 -1 17 -1 13.8 0 17 0.3 17 1.4 0 0.7 -0.9 1.6 -2 1.9 -1.2 0.3 -2 1.4 -2 2.6 0 2 -0.5 2.1 -9.2 1.9 -5.1 -0.1 -11.2 -0.3 -13.5 -0.5z"/>
 </g>
 <g fill="#ffd31c">
  <path d="M104.9 219.7 c0.4 -0.4 8.1 -0.6 17.2 -0.5 l16.4 0.3 -17.2 0.5 c-9.5 0.3 -16.9 0.2 -16.4 -0.3z"/>
  <path d="M64.5 210.8 c-1.1 -0.6 -2.2 -1.2 -2.4 -1.4 -0.7 -0.6 4.1 -7.4 5 -6.9 0.5 0.4 0.7 0 0.4 -0.7 -0.3 -0.7 -0.1 -1.9 0.4 -2.7 0.8 -1.2 1.4 -1.3 3.5 -0.3 3.3 1.5 3.2 2.6 -0.4 8.5 -3.2 5.1 -3.5 5.2 -6.5 3.5z"/>
  <path d="M97 207.8 c0 -1.8 5.2 -2.3 21.3 -1.8 10.4 0.3 16.6 0.9 16.5 1.5 -0.4 1.2 -37.8 1.5 -37.8 0.3z"/>
  <path d="M106.8 201.3 c-7.1 -0.6 -6.2 -3.5 1 -3.5 5.7 0 10.8 -5.8 12.1 -13.7 0.3 -1.9 1.2 -3.6 2 -3.9 2.1 -0.7 0.7 10 -1.8 14.2 -1.2 1.8 -2.1 3.6 -2.1 4 0 0.3 4.4 0.6 9.7 0.6 7.5 0 9.4 0.3 8.5 1.2 -1.2 1.2 -20.2 2 -29.4 1.1z"/>
  <path d="M139 158.7 c0 -0.4 1.1 -2.9 2.4 -5.5 3.7 -7.3 7.4 -20.2 8.6 -29.9 2 -15.1 2 -15.3 3.5 -15.3 1.9 0 1.9 5.4 0.1 17.6 -2.3 15.2 -5.3 23.9 -10.2 29.2 -2.4 2.6 -4.3 4.3 -4.4 3.9z"/>
  <path d="M107 149.4 c-9.7 -9.2 -15.4 -22.4 -16.7 -38.1 l-0.6 -8.3 7.7 0 7.6 0 0 7.3 c0 13.5 4.3 33.9 8.9 42.6 2.1 3.8 -0.8 2.4 -6.9 -3.5z"/>
  <path d="M79 144.9 c-6.5 -3.5 -12.1 -8.7 -15.8 -14.6 -1.9 -3 -3.4 -4.3 -5 -4.3 -2.2 0 -2.2 0.1 -0.7 3.3 0.9 1.7 2 4 2.6 5.1 0.7 1.3 0.7 1.6 0 1.1 -3.7 -2.2 -8.1 -16.6 -8.2 -26.8 -0.2 -10 0.8 -10.6 15.9 -9.1 l7.3 0.7 -0.4 3.9 c-0.2 2.1 -0.7 4.1 -1 4.4 -0.3 0.3 -2.9 -0.2 -5.8 -1 -8.5 -2.6 -8.9 -2.4 -8.9 3.4 0 2.7 1 7.8 2.1 11.2 3.9 11.3 9.1 17 20.7 22.9 3.1 1.6 5 2.9 4.2 2.9 -0.8 0 -4 -1.4 -7 -3.1z"/>
  <path d="M172 145 c10.9 -6.1 16.7 -12.8 20 -23.3 1.1 -3.4 2 -8.4 2 -11.1 l0 -4.8 -3.2 0.5 c-1.8 0.2 -5.4 1.1 -7.9 1.9 l-4.6 1.5 0.1 -3.6 c0.1 -3.4 0.3 -3.7 5.4 -5.4 7.6 -2.5 13.3 -2.8 15.5 -0.9 3.5 3.1 1.5 20.8 -3.4 30.4 -1.1 2.1 -2.2 3.8 -2.4 3.8 -0.3 0 0.4 -1.8 1.5 -3.9 3.5 -6.9 -1.3 -6.6 -5.4 0.3 -3 5.2 -10 11.8 -15.5 14.5 -5.1 2.6 -6.8 2.7 -2.1 0.1z"/>
  <path d="M28.6 132.9 c-6.1 -7.2 -6.5 -10.9 -1.5 -12.2 1.4 -0.4 2.3 0.2 3.3 2.1 0.8 1.5 2.6 4 4 5.5 2.7 2.9 2.7 3.2 -1.5 6.5 -1.4 1.1 -2.1 0.8 -4.3 -1.9z"/>
  <path d="M156 128.7 c0 -1.3 0.9 -5.9 2 -10.2 1.1 -4.3 2 -9.5 2 -11.7 0 -3.2 0.3 -3.8 2.1 -3.8 2 0 2.1 0.4 1.4 6.3 -0.7 6.8 -3.1 17.1 -4.6 19.9 -1.4 2.5 -2.9 2.2 -2.9 -0.5z"/>
  <path d="M151.7 105 c-0.4 -1.5 0 -2 1.4 -2 1.2 0 1.9 0.7 1.9 2 0 1.1 -0.6 2 -1.4 2 -0.7 0 -1.6 -0.9 -1.9 -2z"/>
  <path d="M84.4 96.5 c-0.4 -0.8 -0.4 -2.2 0 -3 0.4 -1.2 -0.4 -1.5 -4.2 -1.6 l-4.7 -0.1 4 -0.9 c2.2 -0.4 20.1 -0.8 39.8 -0.8 l35.7 -0.1 0 4 0 4 -35 0 c-30.2 0 -35.1 -0.2 -35.6 -1.5z"/>
  <path d="M161 96.3 c0.1 -5.3 1 -6.3 6.1 -6.3 2.8 0 4.9 0.5 4.9 1.1 0 0.5 -0.4 0.8 -1 0.4 -0.5 -0.3 -2.1 -0.3 -3.5 0.1 -1.9 0.5 -2.5 1.2 -2.5 3.5 0 2.2 -0.5 2.9 -2 2.9 -1.2 0 -2 -0.7 -2 -1.7z"/>
  <path d="M67.1 73.4 c0 -3.8 0.4 -10.9 0.8 -15.8 0.6 -8.3 0.5 -8.9 -1.4 -9.7 -1.1 -0.4 -1.8 -0.8 -1.5 -0.9 0.3 -0.1 7.8 -0.3 16.8 -0.5 13.3 -0.2 16.2 0 16.2 1.1 0 0.8 -0.6 1.4 -1.4 1.4 -1 0 -1.4 3.3 -1.8 15.1 -0.3 8.2 -0.8 15.2 -1.1 15.5 -0.3 0.3 -3.3 -1.6 -6.6 -4.2 l-6.1 -4.7 -5.8 3.8 c-3.1 2.2 -6.3 4.3 -6.9 4.8 -1 0.7 -1.3 -0.6 -1.2 -5.9z m25.9 -23.5 c0 -0.4 -5.3 -0.7 -11.7 -0.7 -7.9 0.1 -10.1 0.3 -6.8 0.7 6.7 0.8 18.5 0.8 18.5 0z"/>
 </g>
 <g fill="#6095ff">
  <path d="M180 239.5 c-0.8 -0.2 -3.2 -0.6 -5.2 -1 -2.1 -0.3 -3.8 -1 -3.8 -1.5 0 -1.4 13.3 0 15 1.6 1.2 1.2 1 1.4 -1.5 1.3 -1.7 -0.1 -3.7 -0.3 -4.5 -0.4z"/>
  <path d="M177.5 235.5 c-0.5 -0.2 -2.3 -0.7 -4 -1.1 l-3 -0.7 2.5 -0.7 c3.7 -1.2 9 -1.1 9 0 0 0.6 1.2 1 2.8 1 2.1 0 2.4 0.2 1.2 1 -1.4 0.9 -6.4 1.2 -8.5 0.5z"/>
  <path d="M191 224.5 c0 -2.4 -0.5 -3.5 -1.5 -3.5 -1.1 0 -1.5 -1.1 -1.5 -4 0 -2.2 0.4 -4 0.8 -4 1.3 0 6.2 11.9 5.5 13.6 -1.1 2.9 -3.3 1.5 -3.3 -2.1z"/>
  <path d="M212 225.3 c0 -1.8 7.7 -16.1 9.2 -17.1 1.4 -1 1.5 -0.8 0.8 1.6 -1.5 5 -2.9 8.1 -5.6 12.2 -2.4 3.7 -4.4 5.1 -4.4 3.3z"/>
  <path d="M196 223 c-0.9 -1.6 -0.8 -2 0.5 -2 0.8 0 1.5 0.9 1.5 2 0 1.1 -0.2 2 -0.5 2 -0.2 0 -0.9 -0.9 -1.5 -2z"/>
  <path d="M207.2 221.2 c0.2 -2.1 0.9 -2.8 3.1 -3 2.1 -0.3 2.7 -0.9 2.7 -2.7 0 -1.3 0.7 -3.1 1.7 -4 1.3 -1.3 1.3 -1.9 0.4 -2.5 -0.7 -0.4 -1.5 -2.8 -1.8 -5.3 -0.5 -4.4 -0.6 -4.5 -4.4 -4.9 -2.2 -0.2 -3.9 0 -3.9 0.4 0 0.5 -1.6 0.8 -3.5 0.8 -2.6 0 -3.3 -0.3 -2.9 -1.5 0.7 -1.6 2 -2 9.6 -3 l4.7 -0.6 2.6 5.6 c2 4.1 2.5 6.5 2.1 8.8 -1.6 8.2 -11.3 19.2 -10.4 11.9z"/>
  <path d="M159.1 218.7 c-4.8 -1.7 -5.2 -3.7 -0.8 -3.7 2 0 3.7 -0.5 3.9 -1.1 0.2 -0.6 1.6 -0.9 3.1 -0.7 l2.8 0.3 -2.8 3.2 c-2.7 3 -3 3.1 -6.2 2z"/>
  <path d="M166.5 218 c1 -1.1 2 -2 2.2 -2 0.1 0 0.3 0.9 0.3 2 0 1.4 -0.7 2 -2.2 2 -2 0 -2.1 -0.1 -0.3 -2z"/>
  <path d="M192.7 216.2 c-1.4 -3.6 -0.8 -7.2 1.2 -7.2 1.8 0 2.9 9.4 1.2 10.4 -0.5 0.3 -1.6 -1.1 -2.4 -3.2z"/>
  <path d="M143.5 213.8 c-0.7 -1.8 -1.6 -4.9 -1.9 -6.8 -0.6 -3.8 0.8 -11.6 1.6 -9 1.1 3.3 3.8 15.6 3.8 17.3 0 2.8 -2 1.9 -3.5 -1.5z"/>
  <path d="M150.8 215 c-2 -1.2 -4.8 -9.2 -5 -14.3 -0.1 -3.9 1.9 -7.6 6.4 -11.9 l2.9 -2.7 6.4 2.7 c6.8 2.8 9.4 6.2 4.9 6.2 -1.5 0 -2.4 -0.6 -2.4 -1.5 0 -1 -1.1 -1.5 -3.5 -1.5 -2.1 0 -3.5 -0.5 -3.5 -1.2 0 -0.7 -0.7 -0.2 -1.6 1 -0.8 1.2 -2.2 2.2 -3 2.2 -0.8 0 -1.4 0.9 -1.4 1.9 0 1.1 -0.4 2.1 -0.9 2.3 -0.6 0.2 -0.7 3 -0.4 6.6 0.5 5.2 0.9 6.2 2.4 6.2 1.4 0 1.9 0.7 1.9 2.5 0 2.7 -0.6 3 -3.2 1.5z"/>
  <path d="M176.3 215.3 c-2.5 -0.3 -3.3 -0.9 -3.3 -2.5 0 -1.8 0.4 -1.9 3.8 -1.4 8.1 1.4 9.2 1.8 9.2 3.2 0 1.4 -2.4 1.6 -9.7 0.7z"/>
  <path d="M166.6 205.3 c-0.9 -6 -0.7 -8.3 0.8 -8.3 0.9 0 1.8 1.9 2.5 5 1.4 6.7 1.4 7 -0.8 7 -1.4 0 -2 -1 -2.5 -3.7z"/>
  <path d="M195.1 190.4 c-4 -4.5 -4.2 -4.9 -2.1 -5.2 3.7 -0.6 5 0.5 5 4.3 0 3.2 1.3 4.8 2.2 2.6 0.2 -0.4 3.4 -1.2 7.1 -1.6 6.7 -0.7 6.8 -0.6 5.7 1.4 -0.6 1.2 -1.9 2.1 -2.9 2.1 -1 0 -3.8 0.3 -6.3 0.6 -4.3 0.6 -4.5 0.5 -8.7 -4.2z"/>
  <path d="M161.8 187.3 c-5.7 -2.5 -8 -5.1 -3.5 -3.9 1.2 0.3 3.4 0.6 5 0.6 2 0 2.7 0.5 2.7 2 0 1.3 0.7 2 2 2 1.3 0 2 -0.7 2 -2 0 -1.5 0.7 -2 2.5 -2 1.5 0 2.5 -0.6 2.5 -1.4 0 -0.8 0.7 -1.7 1.6 -2 2.3 -0.9 7.4 -0.7 7.4 0.2 0 0.9 -14.3 9.2 -15.6 9.1 -0.5 0 -3.5 -1.2 -6.6 -2.6z"/>
  <path d="M183.6 175.9 c-0.3 -1.7 -0.6 -4.2 -0.6 -5.4 0 -1.6 -0.9 -2.6 -3 -3.5 -1.8 -0.8 -3 -2 -3 -3.1 0 -2.5 2.6 -2.4 6.9 0.2 3.3 2 3.3 2 2.6 7.7 -0.8 6.8 -2 8.5 -2.9 4.1z"/>
  <path d="M187.4 175.3 c1.6 -9.4 1.4 -9 6.1 -9.7 5.2 -0.8 9.5 0.1 9.5 2 0 1 -1.3 1.4 -4.2 1.4 -7.8 0 -8.6 0.6 -8 5.6 0.4 4 0.3 4.4 -1.8 4.4 -2 0 -2.2 -0.3 -1.6 -3.7z"/>
  <path d="M49.5 171.6 l-4.9 -4.6 2.6 -2.7 2.7 -2.7 4.5 4 c2.4 2.1 4.5 4.2 4.5 4.6 0.1 0.4 -0.9 1.9 -2.2 3.4 l-2.4 2.7 -4.8 -4.7z"/>
  <path d="M211 175.1 c0 -0.6 -1.5 -1.1 -3.2 -1.3 -2.9 -0.3 -3.3 -0.7 -3.6 -3.7 -0.3 -3.1 -0.2 -3.2 1.6 -2 2.9 2.1 7.5 7.9 6.3 7.9 -0.6 0 -1.1 -0.4 -1.1 -0.9z"/>
  <path d="M209.6 170.4 c-2.7 -3 -4.7 -5.7 -4.4 -6 0.8 -0.7 7.3 5 9.9 8.7 3.5 5 -0.2 3.1 -5.5 -2.7z"/>
  <path d="M156 173 c0 -2.5 4.3 -6.5 10.2 -9.6 5.6 -2.8 9.3 -3.2 8.4 -0.8 -0.3 0.9 -0.6 1.8 -0.6 2 0 0.2 -1.8 0.4 -4 0.4 -3.3 0 -4 0.3 -4 2 0 1.4 -0.7 2 -2.1 2 -1.3 0 -2.3 1 -3 3 -1.3 3.5 -4.9 4.3 -4.9 1z"/>
  <path d="M155.4 167.1 c4.3 -4.5 16.6 -10.6 16.6 -8.2 0 0.5 -1.3 1.2 -3 1.6 -1.6 0.4 -5.7 2.6 -9 5.1 -6.9 5.1 -8.5 5.6 -4.6 1.5z"/>
  <path d="M217.8 143.4 c-1.6 -0.8 -2.8 -1.7 -2.8 -1.9 0 -1.3 4.5 -9.5 5.2 -9.5 0.5 0 2.2 0.7 3.9 1.5 l2.9 1.6 -1.6 3.7 c-0.9 2 -1.8 4.3 -2.1 5 -0.7 1.6 -2.1 1.5 -5.5 -0.4z"/>
  <path d="M191.1 125 c0.1 -2.2 2.7 -8.8 2.8 -6.9 0.1 0.9 -0.6 3.2 -1.4 5 -0.8 1.9 -1.4 2.7 -1.4 1.9z"/>
  <path d="M51.8 108.2 c-0.3 -0.9 -0.1 -2.6 0.3 -3.7 0.6 -1.5 0.8 -1.1 0.8 1.8 0.1 4 -0.4 4.8 -1.1 1.9z"/>
  <path d="M199.5 101 c-0.3 -0.5 -2.7 -1 -5.2 -1 -5.3 0 -5.2 -1 0 -1.5 2.5 -0.2 4 0.2 5.3 1.6 0.9 1 1.4 1.9 1.1 1.9 -0.3 0 -0.9 -0.4 -1.2 -1z"/>
  <path d="M56 99.6 c0 -0.9 3.7 -1.2 5.5 -0.5 1.5 0.6 1.1 0.8 -1.7 0.8 -2.1 0.1 -3.8 -0.1 -3.8 -0.3z"/>
  <path d="M163.7 72.3 c-0.3 -1 -2 -7.9 -3.7 -15.3 -1.8 -7.4 -3.4 -13.6 -3.4 -13.7 -0.1 -0.1 -5.5 0.7 -11.9 1.7 -6.5 1.1 -15.8 2.2 -20.8 2.6 -7.8 0.6 -8.9 0.5 -8.9 -0.9 0 -1.8 0.1 -1.8 20.5 -4.1 31.3 -3.6 67.2 -13.5 94.2 -26.1 7.6 -3.6 9.4 -4.1 10.3 -3 1.5 1.8 -3.9 4.5 -22.5 11.4 -7.7 2.8 -14.7 5.5 -15.5 6 -0.8 0.4 -5 1.8 -9.2 3.1 -5.6 1.6 -7.8 2.8 -7.8 3.9 0 0.9 1.4 7.4 3 14.5 1.7 7.2 3 13.6 3 14.3 0 0.8 -2.6 0.1 -8 -2.2 -7.5 -3.2 -8 -3.3 -9.2 -1.6 -0.7 1 -3.2 3.9 -5.5 6.5 -3.4 3.8 -4.2 4.4 -4.6 2.9z m4.5 -10 c0.6 -0.7 1.9 -1.3 2.9 -1.3 1.1 0 1.9 -0.7 1.9 -1.5 0 -1 1 -1.5 3.4 -1.5 1.9 0 4.1 0.7 5 1.5 2.1 2.1 4.9 2 4.2 -0.2 -1.5 -5.2 -3.6 -15.8 -3.6 -18.5 0 -2.7 -0.3 -3 -2.2 -2.4 -1.3 0.3 -5.7 1.3 -9.8 2.2 -4.1 0.9 -7.8 1.9 -8.3 2.3 -0.4 0.4 0.5 6.1 2 12.6 1.5 6.6 2.9 11.1 3.1 10 0.3 -1.1 0.9 -2.6 1.4 -3.2z"/>
  <path d="M70 47 c0 -1.7 0.7 -2 5.3 -2 6.6 0 9.7 0.9 9.7 2.6 0 1.1 -1.8 1.4 -7.5 1.4 -6.8 0 -7.5 -0.2 -7.5 -2z"/>
  <path d="M95 47.6 c0 -1.9 3.2 -2.6 11.8 -2.6 5.5 0 7.2 0.3 7.2 1.4 0 1.9 -3.2 2.6 -11.7 2.6 -5.6 0 -7.3 -0.3 -7.3 -1.4z"/>
  <path d="M50.5 47 c-2.7 -0.4 -10.8 -1.5 -18 -2.4 -14.9 -2 -29.7 -4.6 -30.7 -5.5 -0.4 -0.3 -0.4 -1.2 0 -1.8 0.6 -0.9 3.9 -0.6 13.7 1.2 7.2 1.3 19.5 3.1 27.5 4 20.4 2.3 21 2.4 21 4 0 1.7 -4.8 1.8 -13.5 0.5z"/>
 </g>
 <g fill="#ffe063">
  <path d="M108.5 208 c-5.4 -0.6 -4.9 -0.7 4 -0.8 6.4 0 9.3 0.3 8 0.8 -2.2 1 -3.4 1 -12 0z"/>
  <path d="M107.5 200 c-0.7 -1.2 9.5 -1.2 17 0 4.2 0.6 3.3 0.8 -5.7 0.9 -6.2 0 -10.9 -0.3 -11.3 -0.9z"/>
  <path d="M141.9 152.9 c5.8 -12.9 10.1 -31.7 10.1 -44.6 l0 -5.3 5.9 0 5.8 0 -0.4 5.3 c-0.7 8.3 -4 20.6 -7.7 28.2 -3.3 6.9 -10.4 17.2 -14.5 20.9 -1.9 1.7 -1.8 1.2 0.8 -4.5z"/>
  <path d="M74.8 142 c-2.4 -1.6 -5.3 -3.9 -6.4 -5.2 -1 -1.2 0.4 -0.4 3.2 1.8 2.8 2.1 6 4.4 7 5.1 1.1 0.6 1.6 1.2 1.3 1.2 -0.3 0.1 -2.6 -1.2 -5.1 -2.9z"/>
  <path d="M104.3 119.5 c0 -2.2 0.2 -3 0.4 -1.7 0.2 1.2 0.2 3 0 4 -0.3 0.9 -0.5 -0.1 -0.4 -2.3z"/>
  <path d="M192.6 120.5 c0.8 -3.7 1.4 -4.5 1.4 -1.9 0 1 -0.5 2.6 -1 3.4 -0.8 1.1 -0.9 0.7 -0.4 -1.5z"/>
  <path d="M52.2 106.4 c-0.2 -5.9 0.9 -7.4 5.9 -7.4 5.6 0 12.9 1.2 12.4 2 -0.3 0.4 -2.5 0.3 -4.9 -0.2 -2.5 -0.5 -6.2 -0.8 -8.3 -0.6 l-3.8 0.3 -0.6 5.5 -0.6 5.5 -0.1 -5.1z"/>
  <path d="M179 102.5 c0 -0.9 10.5 -3.5 14.8 -3.7 2.9 -0.1 4.8 0.4 5.8 1.5 0.8 0.9 0.9 1.2 0.2 0.7 -1.7 -1.4 -8.4 -1.2 -14.8 0.5 -6.3 1.7 -6 1.6 -6 1z"/>
  <path d="M151.5 94.8 l0 -3.3 -35 -0.5 -35 -0.5 45.5 -0.1 c25 0 43.8 0.1 41.8 0.3 -2.9 0.3 -3.8 0.9 -3.8 2.3 0 4.3 -1 5 -7.4 5 l-6.1 0 0 -3.2z"/>
  <path d="M66.8 48.3 c-1 -0.2 -1.8 -1.2 -1.8 -2 0 -1.3 1 -1.5 6.1 -0.9 3.4 0.3 7.7 0.6 9.5 0.6 2.4 0 3.4 0.5 3.4 1.5 0 1.2 -1.5 1.5 -7.7 1.4 -4.3 -0.1 -8.6 -0.3 -9.5 -0.6z"/>
 </g>
 <g fill="#eae9e9">
  <path d="M176.2 238.9 c-5.8 -1 -10.3 -2.8 -7 -2.9 4 0 16.8 2.3 16.8 3.1 0 1.1 -2.5 1 -9.8 -0.2z"/>
  <path d="M175.8 235 c-4.9 -0.9 -7.1 -3 -9.7 -9.1 l-2.2 -4.9 4.3 -5.1 c3.8 -4.5 4.6 -5 7.3 -4.4 1.6 0.3 5.6 0.8 8.7 1.2 5 0.5 5.8 0.9 6.7 3.2 0.5 1.4 1.6 4.3 2.6 6.4 l1.6 3.9 -4.9 4.9 c-5.2 5.2 -6.4 5.5 -14.4 3.9z m10.6 -16.1 c1.4 -1.3 0.6 -1.7 -5.5 -2.7 -4.7 -0.7 -6 -0.6 -7.8 0.9 -1.1 0.9 -2.1 2 -2.1 2.2 0 1.8 13.6 1.4 15.4 -0.4z"/>
  <path d="M211.7 226 c0.4 -1.4 1.7 -4.1 2.9 -6.1 1.3 -2 2.9 -5.2 3.7 -7.2 0.8 -1.9 2 -3.8 2.6 -4.1 3.4 -2.2 -1.8 10.6 -6.8 16.4 -2.7 3.2 -2.9 3.3 -2.4 1z"/>
  <path d="M194.5 219.9 c-1.4 -3 -2.5 -6 -2.5 -6.8 0 -0.8 1.7 -4.8 3.8 -8.8 4 -7.8 4 -7.9 13.7 -8.5 l4 -0.3 2.3 5.9 c2 5.1 2.2 6.5 1.3 9.5 -2.7 8.9 -7 12.8 -15 13.8 l-5.1 0.6 -2.5 -5.4z m7.2 -10.3 c1.5 -1.9 3.6 -4.8 4.6 -6.5 l1.8 -3.1 -2.5 0 c-2.1 0 -3.1 1 -5.6 6 -1.6 3.3 -3 6.2 -3 6.5 0 1.5 2.2 0.1 4.7 -2.9z"/>
  <path d="M158 218.1 c-7.4 -2.9 -9 -4.3 -10.5 -9.5 -2.5 -8.5 -2 -11.7 2.6 -17 2.2 -2.5 4.7 -4.6 5.5 -4.6 0.7 0 3.8 1.1 6.8 2.4 4 1.8 5.7 3.1 6 4.8 0.3 1.3 1 5.3 1.7 9.1 l1.1 6.7 -3.7 4.3 c-2.1 2.3 -4.1 4.5 -4.4 4.9 -0.3 0.3 -2.6 -0.1 -5.1 -1.1z m6 -5.8 c0 -0.9 0.6 -2.4 1.4 -3.2 1.1 -1.3 1.1 -2.8 0.3 -7.8 -1.1 -6.2 -1.1 -6.2 -5.8 -8.3 -6 -2.5 -6.9 -2.5 -6.9 0 0 1.2 -0.7 3.2 -1.6 4.5 -2.3 3.5 -1.2 7.4 3.3 12.2 4.1 4.4 9.3 5.8 9.3 2.6z"/>
  <path d="M145.3 217.3 c-1.9 -3.2 -4.3 -13.2 -4.3 -17.6 0 -3.4 0.2 -3.8 1.5 -2.7 0.8 0.7 1.5 2.1 1.5 3.2 0 1.1 0.7 4.7 1.6 8 0.8 3.3 1.4 7.2 1.2 8.7 -0.3 2.6 -0.3 2.6 -1.5 0.4z"/>
  <path d="M193.2 188 l-6.3 -7 0.7 -6 c0.9 -8.4 1.7 -9.2 9.3 -9.2 6.1 0 6.5 0.1 10.8 4.4 7.2 7 8.5 10.9 6.2 19 -1 4 -1.4 4.2 -9.9 5.3 l-4.5 0.6 -6.3 -7.1z m15.5 1.5 c0.7 -0.2 1.5 -2 1.9 -4 0.5 -2.9 0.2 -4.3 -1.5 -6.5 -1.1 -1.6 -2.1 -4.1 -2.1 -5.5 0 -2 -0.5 -2.5 -2.6 -2.5 -1.4 0 -3.4 -0.5 -4.5 -1.1 -1.1 -0.6 -3.3 -0.8 -4.8 -0.4 -2.5 0.5 -2.9 1.2 -3.5 5.3 -0.4 2.9 -0.2 4.8 0.4 5 0.5 0.2 1 1.9 1 3.8 0 3.1 0.3 3.4 2.8 3.4 1.6 0 3.7 0.9 4.7 2 1.7 1.9 3.3 2 8.2 0.5z"/>
  <path d="M161.8 187.3 c-4 -1.8 -5.8 -3.2 -5.8 -4.5 0 -2.3 1.7 -2.3 7.4 0.2 4.5 1.9 4.8 1.9 8.4 0.2 2 -0.9 4.3 -2.2 5 -2.9 0.6 -0.6 2.1 -1.5 3.2 -1.8 1.4 -0.4 2 -1.5 2 -3.5 0 -1.6 0.3 -3.6 0.6 -4.4 0.5 -1.2 -0.6 -2.2 -4.1 -3.7 -4.6 -2.1 -4.8 -2.1 -8.9 -0.3 -2.2 1 -4.5 2.4 -4.9 3.1 -0.4 0.7 -1.7 1.3 -2.7 1.3 -1.6 0 -2 0.7 -2 3.5 0 2.8 -0.4 3.5 -2 3.5 -2.9 0 -2.6 -5.1 0.5 -8.8 3 -3.6 11.8 -8.2 15.4 -8.2 1.5 0 5 1.1 8 2.5 l5.3 2.5 -0.6 4.8 c-1.4 10 -1.2 9.7 -9.6 14.6 -4.4 2.5 -8.3 4.6 -8.7 4.5 -0.5 0 -3.4 -1.2 -6.5 -2.6z"/>
  <path d="M213.7 174.7 c-2.5 -3.5 -5.6 -7.1 -6.9 -7.9 -1.3 -0.9 -2 -1.9 -1.5 -2.4 0.9 -1 10 8.4 12.2 12.6 2.8 5.5 0.9 4.3 -3.8 -2.3z"/>
  <path d="M156 167 c3.5 -3.2 8.8 -6.3 13.8 -8 2.5 -1 2.6 -0.9 0.8 0.5 -1.1 0.8 -2.5 1.5 -3.1 1.5 -0.7 0 -3.6 1.7 -6.6 3.8 -7.4 5.2 -9.1 5.9 -4.9 2.2z"/>
  <path d="M218.5 143.3 c-1.7 -0.9 -3.1 -1.7 -3.3 -1.8 -0.1 -0.1 0.8 -2.2 2 -4.6 1.3 -2.4 2.4 -4.5 2.5 -4.7 0.3 -0.7 6.3 2.9 6.3 3.9 0 1.5 -2.7 7.6 -3.7 8.2 -0.4 0.3 -2.2 -0.2 -3.8 -1z"/>
  <path d="M161 59.2 c-1.9 -7.8 -3.7 -14.6 -4 -15.2 -0.5 -0.8 -3.7 -0.7 -11.1 0.4 -12 1.8 -26.9 3.2 -42.1 4.2 -9.2 0.6 -10.8 0.5 -10.8 -0.8 0 -1.2 2.5 -1.6 13.3 -2.2 44.5 -2.3 82.1 -10.9 120 -27.3 8.1 -3.5 13.2 -5.2 13.8 -4.6 1.7 1.7 -21.9 11.8 -45.7 19.4 -8.3 2.7 -9.4 3.3 -9.4 5.4 0 1.2 1.4 8.2 3 15.5 1.7 7.3 3 13.4 3 13.6 0 0.1 -3.5 -1.3 -7.7 -3.2 l-7.8 -3.6 -5.6 6.3 -5.7 6.3 -3.2 -14.2z m10 1.8 c0 -2.9 0.2 -3 4.6 -3 2.5 0 5.4 0.5 6.6 1.1 1.1 0.6 2.2 0.8 2.5 0.6 0.2 -0.3 -0.3 -4 -1.2 -8.2 -1.3 -5.8 -2.1 -7.5 -3.2 -7.1 -0.7 0.3 -5.1 1.3 -9.7 2.3 l-8.3 1.7 2 7.8 c1.7 7 2.2 7.8 4.3 7.8 2 0 2.4 -0.5 2.4 -3z"/>
  <path d="M65.7 47.8 c-16.1 -0.8 -35 -3.1 -51.6 -6.3 -6.8 -1.4 -12.5 -2.6 -12.7 -2.7 -0.2 -0.2 0 -0.9 0.4 -1.5 0.5 -0.9 2.3 -0.8 6.7 0.3 13.9 3.3 58.1 8.4 72.6 8.4 1 0 1.9 0.6 1.9 1.4 0 0.9 -0.8 1.4 -2 1.3 -1.1 -0.1 -8 -0.5 -15.3 -0.9z"/>
 </g>
 <g fill="#fffefe">
  <path d="M179.8 238.3 c1.2 -0.2 3 -0.2 4 0 0.9 0.3 -0.1 0.5 -2.3 0.4 -2.2 0 -3 -0.2 -1.7 -0.4z"/>
  <path d="M177.3 234.3 c0.9 -0.2 2.5 -0.2 3.5 0 0.9 0.3 0.1 0.5 -1.8 0.5 -1.9 0 -2.7 -0.2 -1.7 -0.5z"/>
  <path d="M212.5 225 c0.4 -1.4 1.5 -3.6 2.5 -5 0.9 -1.4 2.7 -4.7 3.9 -7.4 1.2 -2.7 2.4 -4.6 2.7 -4.3 0.8 0.8 -4.9 13 -7.7 16.5 l-2.1 2.7 0.7 -2.5z"/>
  <path d="M170 223 c-1.9 -0.5 -3.8 -0.6 -4.2 -0.4 -2.1 1.3 -0.4 -2.4 2.9 -6.4 l3.6 -4.4 6.1 0.7 c10.5 1.2 11 1.4 12.7 5.5 l1.7 3.8 -5.6 1.1 c-6.3 1.2 -12.1 1.3 -17.2 0.1z"/>
  <path d="M193.5 216.4 c-1.5 -3.7 -1.5 -3.9 2.4 -11.3 l3.9 -7.6 6.1 -0.9 c3.4 -0.5 6.4 -0.7 6.7 -0.4 0.9 1 -2.2 8.3 -5.4 13.1 -1.8 2.5 -5.3 6 -7.7 7.7 l-4.4 3.1 -1.6 -3.7z"/>
  <path d="M158.2 217.8 c-1.3 -0.7 -4.1 -3 -6.4 -5.2 -3 -3 -4.3 -5.3 -5.1 -9.1 -1 -5 -0.9 -5.3 2.2 -9.8 4.6 -6.8 5.9 -7.2 12.8 -4.2 l5.8 2.6 1.6 8.7 1.6 8.7 -3.9 4.8 c-4.2 5 -4.9 5.2 -8.6 3.5z"/>
  <path d="M193.4 187.8 l-6.1 -6.3 1 -7.2 c1.1 -7.9 1.5 -8.3 9 -8.3 5.2 0 9 2.2 13.2 7.8 3.5 4.4 3.7 5 3.3 10.9 -0.2 3.5 -0.8 6.7 -1.4 7.3 -0.5 0.5 -3.7 1.3 -6.9 1.6 l-6 0.6 -6.1 -6.4z"/>
  <path d="M161.1 186.4 l-5.4 -2.5 0.6 -6.7 c0.7 -7.6 2.3 -9.5 11.3 -13.8 4.8 -2.3 5.3 -2.3 10 -0.9 8.3 2.4 8.7 3.1 7.9 11.1 l-0.7 6.9 -7.5 4.3 c-4.2 2.3 -8.3 4.2 -9.2 4.1 -0.9 0 -4 -1.2 -7 -2.5z"/>
  <path d="M215.9 176.8 c-0.7 -1.2 -3.5 -4.7 -6.3 -7.8 l-5 -5.5 5 4.8 c4.5 4.2 9.3 10.7 8 10.7 -0.3 0 -1.1 -1 -1.7 -2.2z"/>
  <path d="M217.1 142.1 c-1.1 -0.7 -1 -1.6 0.5 -5 1.6 -3.7 4 -5.2 5.7 -3.5 0.6 0.6 -3.3 9.4 -4.2 9.4 -0.4 0 -1.2 -0.4 -2 -0.9z"/>
  <path d="M161.7 61.2 c-1.5 -6.4 -3 -12.7 -3.3 -13.9 -0.5 -1.9 -0.2 -2.3 1.7 -2.3 1.2 0 7.2 -1.2 13.1 -2.6 6 -1.4 11.1 -2.4 11.2 -2.3 0.4 0.5 6.3 26.9 6 26.9 -0.1 0 -3.2 -1.4 -6.9 -3 -6.7 -3 -9.5 -3.7 -9.5 -2.2 -0.1 0.4 -2.2 3 -4.8 5.9 l-4.8 5.2 -2.7 -11.7z"/>
  <path d="M68 47.9 c-21.5 -1.4 -63.8 -7.4 -65.8 -9.4 -1.7 -1.6 2.2 -1.4 15 0.9 29.1 5.3 38.2 6 72.3 6 25 0 34.9 -0.3 45 -1.7 34.2 -4.6 66.3 -13.5 94.5 -26.2 8.5 -3.9 12.7 -4.8 10.3 -2.4 -3.1 3.1 -49.9 20.2 -65.7 24 -17.3 4.1 -42.8 7.5 -66.6 8.9 -19.3 1.1 -19.7 1.1 -39 -0.1z"/>
 </g>
</svg>